<svg xmlns="http://www.w3.org/2000/svg" xmlns:xlink="http://www.w3.org/1999/xlink" width="226.84" height="228.54" viewBox="0 0 226.84 228.54">
  <defs>
    <clipPath id="clip-finantropialogo">
      <rect width="226.84" height="228.54"/>
    </clipPath>
  </defs>
  <g id="finantropialogo" clip-path="url(#clip-finantropialogo)">
    <g id="SVGlogo" transform="translate(-114.25 -15)">
      <path id="Trazado_1" data-name="Trazado 1" d="M266.224,236.034q2.14-1.067,4.508-2.142a16.164,16.164,0,0,0,4.021-2.457,11.117,11.117,0,0,1-2.01,1.208q-1.2.622-2.457,1.2t-2.366,1.162a10.06,10.06,0,0,0-1.7,1.026M173.349,32.645a2.911,2.911,0,0,1,1.03-1.117,4.916,4.916,0,0,0,1.117-1.117,4.326,4.326,0,0,0-1.208.848,3.538,3.538,0,0,1-1.249.848c.237.059.251.209.046.447-.241.241-.15.269.265.091m9.025-4.513,1.741-.715q1.79-.712,3.619-1.473,1.922-.67,3.975-1.431a7.777,7.777,0,0,0-3.528.893q-1.027.45-1.965.852a7.776,7.776,0,0,1-1.7.579,4.894,4.894,0,0,0-.848.579c-.269.182-.579.373-.939.583a3.8,3.8,0,0,0-1.472.356,23.85,23.85,0,0,0-2.589,1.117,5.305,5.305,0,0,0-1.7,1.117c1.253-.593,2.471-1.145,3.665-1.651.566-.269,1.145-.538,1.741-.806m144.111,71.52a10.219,10.219,0,0,0-.447-1.472,15.763,15.763,0,0,0-.893-1.924,6.912,6.912,0,0,0-1.117-1.564c-.388-.387-.715-.474-.984-.269a8.675,8.675,0,0,1,.893,1.746c.269.711.506,1.458.716,2.234.178.743.373,1.427.579,2.051a5.521,5.521,0,0,0,.629,1.386c.447.478.7.4.757-.223a6.431,6.431,0,0,0-.132-1.965m-.36,16.8a8.335,8.335,0,0,1-.178,2.234.952.952,0,0,1-.31-.67,1.133,1.133,0,0,0-.36-.716,2.038,2.038,0,0,1,.046,1.117c-.15-.388-.238-.373-.269.046q.582,1.025,1.162.269t-.091-2.279m-17.2,69.1a97.725,97.725,0,0,1-15.991,18.676q2.367-.629,4.782-1.34,1.292-.4,2.635-.893a24.381,24.381,0,0,0,2.726-1.162c.8-.862,1.368-1.5,1.7-1.919a15.787,15.787,0,0,0,.848-1.34,21.391,21.391,0,0,1,1.431-2.147,6.7,6.7,0,0,0,.492-1.832c.059-.593.1-1.19.132-1.787a6.7,6.7,0,0,1,1.249-3.615,6.578,6.578,0,0,1,0-2.639M145.835,75.932a6.954,6.954,0,0,1,.8-.625,9.1,9.1,0,0,1,.579-.848.866.866,0,0,0-.178-.625c-.119-.15-.356-.091-.716.178-.565.921-.729,1.564-.488,1.919m1.472-2.544a.883.883,0,0,0,.716-.045q1.293-1.7,2.635-3.4a1.975,1.975,0,0,1,.091-1.295q1.025-.581.98,0a97.061,97.061,0,0,1,16.529-15.681c-.474.209-.952.4-1.427.579a23.326,23.326,0,0,0-2.416,1.208,7.455,7.455,0,0,0-2.01,1.7c.241-.206.465-.387.67-.534s.329-.136.36.045q-1.655,1.157-3.127,2.275a14.817,14.817,0,0,0-2.726,2.726,23.587,23.587,0,0,0-2.9,2.457,31.614,31.614,0,0,0-3.173,3.4,36.8,36.8,0,0,0-2.68,3.619,19.807,19.807,0,0,0-1.518,2.949m44.134-33.326a99,99,0,0,1,19.478-5.315,6.885,6.885,0,0,1,1.965-.537,41.132,41.132,0,0,1,4.112-.447,16.912,16.912,0,0,1,1.787,0q4.067-.356,8.219-.356a95.554,95.554,0,0,1,14.386,1.071,60.13,60.13,0,0,0-21.579-2.5,103.47,103.47,0,0,0-23.138,4.244q-1.963,1.34-4.066,2.858c-.447.36-.834.684-1.162.984m68.931-8.442q5.894,2.5,11.077,5.137,5.183,2.591,9.919,5.361a151.662,151.662,0,0,1,18.092,12.194.642.642,0,0,0,.579,0c.15-.091.4.014.761.314a14.556,14.556,0,0,0,2.858,2.275,14.258,14.258,0,0,1,2.324,2.056,7.4,7.4,0,0,1,.98,1.654,14.783,14.783,0,0,0,1.03,1.874,8.841,8.841,0,0,0,1.071,1.075,1.872,1.872,0,0,1,.625,1.117q.4-2.461-2.143-5.9a35.349,35.349,0,0,0-2.862-3.483q-1.649-1.7-3.483-3.487-3.487-3.261-6.386-5.853a65.3,65.3,0,0,0-6.254-4.914q-2.77-1.2-5.319-2.544-2.544-1.387-5.178-2.771-2.592-1.429-5.5-2.768c-.98-.447-2-.893-3.036-1.34-1.044-.387-2.129-.761-3.264-1.117a.959.959,0,0,1-.848.935,7.115,7.115,0,0,1-1.741-.042,14.967,14.967,0,0,0-1.965-.136,1.809,1.809,0,0,0-1.34.36m11.615-2.234a10.4,10.4,0,0,0,2.68,1.787q1.785.937,3.929,1.965,1.074.492,2.147,1.026,1.025.539,2.01,1.071a28.117,28.117,0,0,1,3.391,2.01q.985.853,1.924,1.7a20.866,20.866,0,0,0,2.589,1.919,2,2,0,0,1,.492.806c.059.237.342.534.848.893a8.594,8.594,0,0,1,2.858,1.249q1.655.984,3.4,2.188,1.7,1.209,3.081,2.01a3.36,3.36,0,0,0,2.279.537,8.685,8.685,0,0,0-2.412-2.68q-1.743-1.429-3.665-3.127c-.625-.656-1.249-1.354-1.874-2.1a17.052,17.052,0,0,0-1.923-1.965,37.52,37.52,0,0,0-4.554-3.4q-1.073-.67-2.01-1.2c-.657-.328-1.281-.628-1.878-.893a22.064,22.064,0,0,0-3.4-1.075,20.136,20.136,0,0,0-3.214-.356,7.6,7.6,0,0,0-3.35-1.295,9.364,9.364,0,0,1-3.35-1.071m38.149,41.855.314-.269c-.479-.8-.893-1.459-1.253-1.965a12.591,12.591,0,0,0-1.564-1.651q-.313.534.625,1.742c.629.775,1.253,1.487,1.878,2.143m-3.081-4.376c.146-.178.37-.209.67-.091q-.76-1.026-1.162-.939c-.238.059-.073.4.492,1.03m-.985,1.965q-1.654-2.413-3.35-4.736a36.779,36.779,0,0,1-5.092-3.619,34.317,34.317,0,0,0-5.406-3.706,27.593,27.593,0,0,0,4.157,3.441c.8.565,1.6,1.159,2.411,1.787a30.519,30.519,0,0,1,2.32,2.1,48.311,48.311,0,0,1,4.513,5.5,58.335,58.335,0,0,1,3.441,5.626c.328-.206.415-.579.269-1.117a2.155,2.155,0,0,1-.045-1.295,25.072,25.072,0,0,1-3.218-3.975M291.281,56.189a12.627,12.627,0,0,0-1.294-1.208c-.506-.447-.907-.6-1.2-.447.624.415,1.1.761,1.427,1.026a3.238,3.238,0,0,0,1.071.628M249.112,219.506c-.3-.059-.492-.041-.579.046a1.907,1.907,0,0,1-.67.223c.028.269.269.36.716.269.474-.119.652-.3.533-.538M143.286,93.622a91.2,91.2,0,0,0-8.173,37.926,92.644,92.644,0,0,0,2.945,23.143,89.715,89.715,0,0,0,8.355,21,26.162,26.162,0,0,0-.761-3.309q-.847-2.455-1.828-4.823-.943-2.324-1.832-4.645-.45-1.162-.893-2.325-.4-1.162-.716-2.32-.357-1.163-.67-2.279-.267-1.162-.447-2.325-1.115-3.261-2.1-6.833a32.221,32.221,0,0,1-1.026-7.462,5.082,5.082,0,0,1-.624-1.965,25.8,25.8,0,0,1-.223-2.813,23.435,23.435,0,0,1,.178-2.9c.091-.926.178-1.714.269-2.37a45.176,45.176,0,0,1-.046-5.361q.178-1.382.315-2.858c.087-.952.223-1.906.4-2.858q.22-1.43.492-2.858c.205-.926.414-1.847.624-2.771q.314-1.34.625-2.68.356-1.293.67-2.5.848-3.392,1.965-6.924a64.358,64.358,0,0,1,2.635-6.833.17.17,0,0,0-.132-.046m174.8,25.641q-.759.357-1.518.67a5.225,5.225,0,0,1-1.609.36c-.593,1.28-1.28,1.741-2.051,1.381a12.635,12.635,0,0,1-2.37-1.65,16.689,16.689,0,0,1-1.386-5.5q-.355-3.261-.4-5.584a1.474,1.474,0,0,0,.269-.533.384.384,0,0,1,.4-.314,1.693,1.693,0,0,0,.137-1.2,13.44,13.44,0,0,1-.091-1.477,4.8,4.8,0,0,0,1.563-2.726,22.09,22.09,0,0,1,1.026-3.483,34.993,34.993,0,0,0-2.544-7.325,42.726,42.726,0,0,0-3.934-6.792,61.51,61.51,0,0,0-4.868-6.118q-2.634-2.905-5.269-5.5a2.78,2.78,0,0,0-.848-1.295,2.215,2.215,0,0,1-.852-1.208q-1.7-1.471-3.574-3.127-.937-.8-1.874-1.651c-.625-.537-1.254-1.071-1.878-1.609q-1.874-1.7-3.619-3.218-1.7-1.607-3.036-2.945a5.4,5.4,0,0,0-1.878-.806,3.791,3.791,0,0,1-.935-.893,5.9,5.9,0,0,0-.716-.848q-.937-.581-1.787-1.117-.807-.492-1.563-.984c-.985-.653-1.951-1.281-2.9-1.874a13.9,13.9,0,0,0-3.71-2.949,48.54,48.54,0,0,0-5.046-2.68c-.862-.356-1.741-.7-2.635-1.026-.953-.241-1.965-.506-3.04-.806q-2.052-.581-4.244-1.071a9.838,9.838,0,0,0-1.026-.223c-.355-.059-.7-.119-1.026-.178q-1.073-.178-2.01-.269a12.456,12.456,0,0,0-1.787-.045,12.6,12.6,0,0,0-1.522.178q-1.56-.356-2.99-.579-1.43-.136-2.771-.223a27.21,27.21,0,0,0-4.736.133q-2.14.225-4.107.628-1.922.4-3.843.8a16.194,16.194,0,0,0-5.046.356c-.807.182-1.6.328-2.37.447a11,11,0,0,1-2.056.314c-.178.031-.264.091-.264.178v.269q-3.042.581-5.944,1.162a51.969,51.969,0,0,0-5.807,1.427q-4.465.539-8.843,1.34a36.165,36.165,0,0,0-5.092,1.609c-.807.328-1.609.67-2.416,1.03-.771.387-1.546.771-2.32,1.159q-4.512,2.5-8.624,5.05a8.781,8.781,0,0,1-2.812,2.188,41.126,41.126,0,0,0-3.619,2.01c-.387.269-.775.537-1.162.8a11.31,11.31,0,0,0-1.117.893q-1.115.942-2.142,1.832a22.14,22.14,0,0,1-3.706,2.949q-.985,1.387-2.325,3.127-1.293,1.743-2.726,3.619-1.382,1.874-2.767,3.574a26.847,26.847,0,0,1-2.416,2.949q-.534,1.026-.98,1.829a6.768,6.768,0,0,0-.761,1.832c-.474.775-.952,1.595-1.427,2.457s-.953,1.741-1.431,2.635q-1.387,2.68-2.68,5.543-1.252,2.857-2.366,5.848-.54,1.524-1.03,3.086-.267.712-.533,1.518l-.406,1.518A85.527,85.527,0,0,0,137.7,120.6a80.808,80.808,0,0,0-.716,11.751,10.644,10.644,0,0,0,.091,1.965c.087.625.178,1.249.269,1.874.059.6.1,1.208.132,1.832a10.48,10.48,0,0,1,0,1.924,30.207,30.207,0,0,1,1.026,3.259q.493,1.874.939,3.975.54,2.057.893,4.066.45,2.01.716,3.665.623,1.7,1.34,3.3a15.609,15.609,0,0,0,1.518,2.9,7.693,7.693,0,0,0,.716,2.635q.623,1.2,1.162,2.5l.533,1.34c.182.415.36.848.538,1.295.328.862.639,1.741.939,2.635q.533,1.252,1.026,2.548l.985,2.589q.533,1.252,1.026,2.548.582,1.25,1.162,2.5,1.162,2.5,2.589,4.914c.21.264.283.447.223.533a.66.66,0,0,1-.178.269q1.79,2.592,3.843,5.269a94.255,94.255,0,0,0,14.072,12.868c.269.147.538.282.8.4q1.163.582,2.279,1.117,2.277.984,4.467,1.919a18.258,18.258,0,0,0,1.924,1.208q7.459,2.769,15.1,4.782,7.638,1.962,15.1,4.107a10.169,10.169,0,0,0,1.655.4q.848.048,1.7.137a19.225,19.225,0,0,1,3.264.625q4.643-.089,9.65.178,2.5.137,4.955.137,1.21.042,2.37.041c.8-.028,1.577-.059,2.32-.087a10.7,10.7,0,0,1,1.969-.538c.652-.147,1.34-.269,2.051-.356q2.147-.225,4.244-.4c.3.059.373.132.223.223a1.29,1.29,0,0,0-.4.4,9.217,9.217,0,0,1,2.949-1.071,17.133,17.133,0,0,1,3.081-.36q1.565-.088,3.218-.31a13.024,13.024,0,0,0,3.214-.893c-.059.237.032.324.269.264a1.706,1.706,0,0,1,.538,0c.716-.264,1.386-.52,2.01-.757a93.1,93.1,0,0,0,13.935-7.1q3.44-3,6.792-5.9,2.633-2.147,5.046-4.335,2.372-2.23,4.558-4.508,2.147-2.235,4.066-4.513.983-1.12,1.873-2.279c.3-.388.6-.761.893-1.117l.807-1.162c.387-.593.757-1.176,1.117-1.741a3.47,3.47,0,0,1,1.386-1.34,30.8,30.8,0,0,1-4.112,7.28,91.6,91.6,0,0,0,15.457-26.844,90.66,90.66,0,0,0,5.584-31.63,92.591,92.591,0,0,0-.807-12.285m-6.432-45.387c.119-.028.283.059.492.269.178.178.314.178.4,0a6.289,6.289,0,0,1-.67-1.071,5,5,0,0,0-.757-1.162,1.487,1.487,0,0,0,.178.939,4.74,4.74,0,0,1,.355,1.026m1.477,4.02a3.8,3.8,0,0,0,.355,1.654c.269.656.579,1.354.939,2.1s.7,1.459,1.026,2.143a7.519,7.519,0,0,1,.625,1.878.545.545,0,0,0,.807,0q-.67-1.34-1.117-2.279c-.3-.656-.551-1.253-.761-1.787a33.47,33.47,0,0,0-1.873-3.71m27.56,44.63a6.97,6.97,0,0,1-1.386,3.8,4.991,4.991,0,0,1-.447,3.3c-.206-.657-.4-1.012-.579-1.071a.705.705,0,0,0-.538.041.841.841,0,0,1-.757-.132,8.787,8.787,0,0,1-.137-1.249c.032-.3.077-.688.137-1.162a3.587,3.587,0,0,0-1.564-1.518q-.848-.315-1.787-.761a4.82,4.82,0,0,1-1.787-2.056,11.979,11.979,0,0,0-.716-2.366q-.445-.937-.848-2.01a17.769,17.769,0,0,1-.716-3.04q-.4.315-.223,1.609c.15.893.269,1.773.356,2.635a.765.765,0,0,0-.356.314c-.091.15-.209.073-.356-.223a12.748,12.748,0,0,1-.939,3.929,28.779,28.779,0,0,0-1.208,3.04,2.2,2.2,0,0,1-1.874.046q.177,2.947.178,5.894V134c.087-.237.178-.46.269-.67a1.333,1.333,0,0,1,.579,1.431,19.15,19.15,0,0,1-.223,2.188,1.741,1.741,0,0,0,.269,1.472,2.109,2.109,0,0,1-.269.807c-.091.209-.178.415-.269.624a32.144,32.144,0,0,1-2.279,11.036,96.3,96.3,0,0,1-11.569,30.331q-.267.58-.492,1.162a5.741,5.741,0,0,1,.182,1.65,6.567,6.567,0,0,1-.761,2.635q-.178,1.43-.447,3.127-.314,1.614-.8,3.533a31,31,0,0,1-1.431,3.975c-.328.683-.67,1.386-1.026,2.1-.419.688-.852,1.386-1.3,2.1-.593.538-1.176,1.026-1.741,1.472q-.848.629-1.7,1.162a21.381,21.381,0,0,1-3.081,1.655,43.934,43.934,0,0,1-5.807,1.873,49.724,49.724,0,0,1-6.031,2.279q-1.032.315-2.01.625a101.558,101.558,0,0,1-20.909,11.8,103.629,103.629,0,0,1-10.1,5.4,6.244,6.244,0,0,0-1.741.36A9.218,9.218,0,0,1,248.843,230c-.711.241-1.458.492-2.233.761a18.962,18.962,0,0,0-2.32.761c-.507.118-.775.1-.807-.046-.059-.15-.3-.178-.711-.091a16.428,16.428,0,0,1-4.335,1.34,46.494,46.494,0,0,1-5.228.625q-2.722.137-5.315.182a44.342,44.342,0,0,0-4.736.31q-.67-.088-1.381-.178c-.447-.091-.911-.164-1.386-.223-.925-.119-1.847-.223-2.771-.315q-2.859-.308-5.671-.67-2.77-.4-5.274-.935a33.038,33.038,0,0,1-4.467-1.431q-5-1.387-9.782-3.218-4.737-1.874-8.98-3.975-2.9-1.382-5.671-2.457c-.926-.356-1.847-.729-2.771-1.117q-1.34-.623-2.635-1.386a18.357,18.357,0,0,1-2.01-1.472c-.807-.656-1.5-1.221-2.1-1.7q-.623-.4-1.34-.807c-.447-.3-.817-.566-1.117-.8a8.809,8.809,0,0,1-1.832-2.68q-.533-1.252-1.2-2.635a13.458,13.458,0,0,0-2.548-3.264q-.623-.67-.848-.492c-.15.122-.355.091-.624-.087q-.628-.67-1.34-1.477c-.478-.533-.939-1.071-1.386-1.6a5.818,5.818,0,0,1-1.609-2.639q-1.92-2.1-3.706-4.107-.937-.985-1.787-2.01-.9-.985-1.7-2.056c-.565-.716-1.117-1.431-1.65-2.142q-.76-1.12-1.477-2.234a34.764,34.764,0,0,1-2.68-4.959,50.922,50.922,0,0,1-3.752-7.148q-1.7-3.842-2.99-7.772-.67-2.01-1.3-3.934-.58-1.963-1.249-3.8-1.162-3.8-2.5-7.056a22.292,22.292,0,0,0-.492-2.325c-.178-.683-.341-1.326-.488-1.919-.182-.6-.346-1.236-.492-1.924a13.514,13.514,0,0,1-.269-2.411,25.5,25.5,0,0,0-.848,3.71,32.382,32.382,0,0,0-.447,4.244q.8,4.062,1.2,7.371.4,3.35.67,6.564.225,1.565.492,3.218a14.694,14.694,0,0,0,.269,1.65c.15.569.3,1.135.447,1.7q.445,1.7,1.117,3.528a38.705,38.705,0,0,0,1.741,3.8l-.4.178a7.955,7.955,0,0,1,1.162,2.68,16.263,16.263,0,0,0,.939,2.726,20.434,20.434,0,0,0,2.9,3.888q1.648,1.56,3.036,2.858a10.557,10.557,0,0,0,.492,2.01,7.7,7.7,0,0,1-2.548-2.147q-1.34-1.56-2.457-2.945-.849-.985-1.832-2.279a20.3,20.3,0,0,1-2.1-4.02,15.619,15.619,0,0,1-.893-3.04,18.722,18.722,0,0,0-.807-3.036q-.58-1.429-1.2-2.858a5.572,5.572,0,0,1-.583-2.234c-.356-.807-.7-1.5-1.026-2.1-.119-.743-.209-1.427-.269-2.056a10.73,10.73,0,0,0-.579-2.544,8.93,8.93,0,0,0,.223-3.3q-.178-1.969-.583-4.289-.445-2.325-.848-4.691-.178-1.162-.356-2.325-.137-1.115-.223-2.188c-.119-.538-.091-.8.087-.8s.283-.122.315-.36c-.091-.566-.178-1.13-.269-1.7s-.163-1.131-.223-1.7c-.119-1.1-.223-2.188-.31-3.259q-.137-3.214-.091-6.3.088-3.084.314-6.117.089-1.477.178-3.04.13-1.518.269-3.081.267-4.067.757-8.132A42.2,42.2,0,0,1,127.784,103c.122-.538.283-.848.492-.939a2.74,2.74,0,0,0,.492-.31,23.317,23.317,0,0,1,.67-3.71q.623-2.052.984-3.8a1.9,1.9,0,0,0-.852.67c-.324.36-.624.67-.893.939s-.46.255-.579-.046a6.77,6.77,0,0,1,1.117-1.117,8.945,8.945,0,0,0,1.117-.893q.533-1.293,1.162-2.544c.356-.834.716-1.669,1.071-2.5q1.026-2.46,2.056-4.959,1.073-2.455,2.234-4.959,1.25-2.5,2.68-4.959c-.36-.147-.789.045-1.295.583a2.6,2.6,0,0,1-1.386.893,3.425,3.425,0,0,0,.757-.893q.4-.67.852-1.34a1.163,1.163,0,0,0-1.03.311,8.7,8.7,0,0,0-1.2,1.03q-.273.581.178.356c.269-.178.342-.059.223.36A9.486,9.486,0,0,1,135.022,77c-.478.387-.879.447-1.208.182q-.712,1.115-1.2,1.919a1.812,1.812,0,0,1-1.208.848q-1.115,1.7-1.965,3.3t-1.609,3.127q-1.429,3.042-2.544,5.9-.582,1.429-1.117,2.813-.582,1.388-1.117,2.817t-1.162,2.858q-.54,1.477-1.208,3.036-.984,3.35-2.01,7.33-.445,1.92-.893,3.66c-.147.6-.282,1.162-.4,1.7-.15.506-.282.994-.4,1.472a37.953,37.953,0,0,1-.447,4.691q-.315,2.68-.761,5.406a4.567,4.567,0,0,1-.046-2.279,20.261,20.261,0,0,0,.492-2.188q.582-4.957,1.477-10.1a66.966,66.966,0,0,1,2.411-9.873c.533-1.549,1.1-3.067,1.7-4.554q.9-2.284,2.188-5.721a4.3,4.3,0,0,0,.223-.939,5.679,5.679,0,0,1,.223-1.026,50.488,50.488,0,0,1,3.979-8.578q2.5-4.2,4.777-8.4-1.429-.089-3.214,1.919a80.317,80.317,0,0,0-4.426,8.488q-1.47,3.439-2.721,6.792a4.206,4.206,0,0,1-.137-3.305,53.323,53.323,0,0,1,1.741-5.05q.582-.937,1.162-1.829a6.1,6.1,0,0,1,1.071-1.253A104.6,104.6,0,0,1,137.794,62.4a70.257,70.257,0,0,1,15.321-14.473c-.209.237-.238.311-.091.223a3.912,3.912,0,0,0,.492-.36c-.506.506-1.057,1.089-1.65,1.741-.629.628-1.208,1.253-1.746,1.878a3.286,3.286,0,0,1,.985-1.34,2.909,2.909,0,0,0-1.655,1.208c-.447.653-.921.967-1.427.935-.36.419-.478.611-.36.583a1.443,1.443,0,0,1,.447.087c-.447.3-.876.569-1.295.806a8.152,8.152,0,0,0-1.609,1.564,2.615,2.615,0,0,0-.488.939c-.06.265-.105.52-.137.757A7.239,7.239,0,0,0,145.7,55.7a8.142,8.142,0,0,1,1.071-1.253,1.765,1.765,0,0,0,.985-.223c.388-.178.789-.342,1.208-.489a2.261,2.261,0,0,0,.178-.492,1.626,1.626,0,0,1,.492-.583q.8-.8.533-.356a1.745,1.745,0,0,0-.223.67q1.34-.937,2.771-2.143a3.5,3.5,0,0,0,1.564-2.192,25.444,25.444,0,0,0,2.99-1.651,31.941,31.941,0,0,0,3.533-2.5,7.649,7.649,0,0,0,2.188-2.635,9.958,9.958,0,0,0,1.832-.939q.978-.581,2.143-1.34,1.115-.759,2.366-1.654,1.252-.8,2.548-1.7A40.54,40.54,0,0,1,177.1,33.27a12.823,12.823,0,0,1,4.6-1.386,37.517,37.517,0,0,1,5.092-2.321c.775-.3,1.563-.565,2.37-.806.771-.206,1.591-.4,2.457-.579a87.015,87.015,0,0,1,10.853-3.752,85.433,85.433,0,0,1,12.376-2.457,82.71,82.71,0,0,1,12.64-.715,84.569,84.569,0,0,1,11.524,1.071,32.287,32.287,0,0,1,4.513-.045,52.335,52.335,0,0,1,5.762.893,22.772,22.772,0,0,0,3.442.091,25.031,25.031,0,0,0,2.771-.314q1.251-.178,2.589-.311a19.487,19.487,0,0,1,2.995-.045,1.656,1.656,0,0,0-.716-.579c-.388-.182-.774-.36-1.162-.537a3.545,3.545,0,0,1,2.142.579,4.6,4.6,0,0,0,1.924.67c-.031-.265-.283-.52-.761-.757a11.456,11.456,0,0,0-1.874-.761c-.747-.269-1.49-.534-2.234-.8a6.478,6.478,0,0,1-1.746-1.03q-3.57-.89-6.117-1.741a56.47,56.47,0,0,0-5.675-1.249,13.083,13.083,0,0,0-2.9.045,21.561,21.561,0,0,1-2.767.087,24.461,24.461,0,0,1-3.574-.4,10.032,10.032,0,0,0-3.264-.091.716.716,0,0,1-.534-.4c-.06-.178-.314-.3-.761-.356a19.952,19.952,0,0,1-3.483.356q-1.88.089-4.02.136a56.318,56.318,0,0,0-8.8.8,54.984,54.984,0,0,0-8.488,2.324,66.707,66.707,0,0,0-7.056,2.858,3.4,3.4,0,0,1-.939.178c-.21.031-.447.059-.716.091a15.381,15.381,0,0,1-2.366,1.159q-1.12.4-2.68,1.075c.118-.269.132-.419.041-.447s-.191-.164-.31-.4a2.692,2.692,0,0,1,.492.045,1.93,1.93,0,0,0,.8-.133c.538-.15.848-.314.939-.492a1.758,1.758,0,0,1,.533-.492,8.872,8.872,0,0,0,2.457-.534c.807-.269,1.609-.583,2.416-.939s1.6-.715,2.411-1.071a12.145,12.145,0,0,1,2.411-.715,16.025,16.025,0,0,1,4.02-2.146,29.208,29.208,0,0,1,10.853-1.874q2.729.042,5.452.045c.625-.031,1.281-.045,1.965-.045q.985-.047,1.965,0Q231.023,15,233.031,15q2.057.089,3.975.178a32.291,32.291,0,0,1,3.619.36c.269,0,.4-.059.4-.182.032-.087.2-.133.492-.133a26.6,26.6,0,0,1,4.645.4,43.616,43.616,0,0,1,4.467,1.03q4.382,1.471,8.579,3.169c.893.328,1.846.628,2.858.893,1.012.3,2.01.611,2.995.939a14.669,14.669,0,0,1,2.767,1.117,7.492,7.492,0,0,1,2.147,1.609,58.847,58.847,0,0,1,10.676,3.93,66.478,66.478,0,0,1,9.828,5.853,42.873,42.873,0,0,1,7.462,6.7q2.1,1.565,3.838,3.127a26.539,26.539,0,0,1,2.771,2.9,36.05,36.05,0,0,1,4.112,3.487q1.7,1.785,3.127,3.574,1.47,1.785,2.99,3.752.807.937,1.741,1.965.9,1.026,1.924,2.143c.328.122.639.223.939.314a.93.93,0,0,0,.757-.045,18.871,18.871,0,0,1,2.056,3.263,11.294,11.294,0,0,1,.939,2.544,18.894,18.894,0,0,1,1.919,2.279c.657.862,1.295,1.755,1.924,2.68a40.719,40.719,0,0,0,3.35,4.691,10.782,10.782,0,0,0,1.249,2.813q1.026,1.79,1.787,2.862a1.08,1.08,0,0,0,.178-.806c0-.387.2-.387.583,0,.178.625.146,1.044-.091,1.253a1.333,1.333,0,0,0-.4.848,14.913,14.913,0,0,1,1.65,2.991q.67,1.743.182,2.324.711,1.607,1.295,3.218.533,1.607.939,3.168.847,3.173,1.381,6.391c.091.533.182,1.085.269,1.65.091.538.164,1.089.223,1.655q.267,1.7.492,3.442.267,1.737.492,3.66.267,1.832.533,3.888-.088,2.947-.4,5.63M319.47,202.444c-.566-.031-1.309.447-2.234,1.427.269.06.611-.1,1.03-.488a12.243,12.243,0,0,1,1.2-.939m-38.864,25.55a4.623,4.623,0,0,0,1.787-1.65,3.987,3.987,0,0,0-1.2.893c-.182.237-.373.492-.583.757m-5.137,3.086c.625-.329,1.281-.657,1.965-.984.716-.356,1.076-.656,1.076-.893a7.174,7.174,0,0,1-1.924,1.071c-.743.269-1.117.538-1.117.807m-3.528,1.026a2.171,2.171,0,0,1-.893.132,1.827,1.827,0,0,0-1.071.269q.042.315.848.178a1.75,1.75,0,0,0,1.117-.579m-3.35,2.234c.3-.269.314-.415.046-.447a2.316,2.316,0,0,0-1.071.091.78.78,0,0,0,.223.447c.147.087.415.059.8-.091m-4.914,1.741a2.666,2.666,0,0,0,.761-.31,2.5,2.5,0,0,1,.711-.36c-.387.269-.415.373-.087.314.328-.091.729-.223,1.2-.4.479-.21.73-.373.761-.492a2.089,2.089,0,0,1-1.163.269.356.356,0,0,1,.178-.269.194.194,0,0,0,.046-.269,12.291,12.291,0,0,1-1.65.848q-.943.4-2.01.761-2.147.8-4.513,1.65c-.031.3.119.329.447.091.356-.238.625-.3.8-.178a6.091,6.091,0,0,1-1.65.67c-.747.178-1.117.119-1.117-.178a55.335,55.335,0,0,1-6.97,2.01,36.635,36.635,0,0,0-6.167,1.828,4.183,4.183,0,0,0-2.858.314,5.349,5.349,0,0,0-1.832,1.162c1.581-.238,2.963-.492,4.157-.761s2.279-.551,3.259-.848q1.518-.445,3.04-.848t3.35-.761a6.262,6.262,0,0,1,3.259-.939,9.6,9.6,0,0,0,3.4-.711c-.328-.091-.342-.21-.046-.36s.743-.342,1.34-.579c.6-.21,1.176-.433,1.741-.67a7.393,7.393,0,0,0,1.34-.583,3.222,3.222,0,0,1,.624.223,1.326,1.326,0,0,0,.761.091q0-.178.492-.356a1.031,1.031,0,0,0,.533-.36c-.711.3-1.13.419-1.249.36a.287.287,0,0,1-.178-.269c-.031-.119-.269-.15-.716-.091M161.287,221.7a9.54,9.54,0,0,1,1.924,1.249,5.843,5.843,0,0,0,1.874,1.071,20.622,20.622,0,0,0-2.051-1.7q-1.43-1.027-1.746-.625m1.117-4.112a21.456,21.456,0,0,1-3.8-2.949q-1.785-1.654-3.752-3.173l-.31.315a9.081,9.081,0,0,0,1.919,2.234q1.115,1.027,2.457,2.325a10.54,10.54,0,0,1,1.832.8,3.336,3.336,0,0,0,1.65.447M145.52,205.571a68.142,68.142,0,0,1-10.407-15.9,13.6,13.6,0,0,1-1.3-2.411,6.563,6.563,0,0,0-1.295-2.01c.3-.178.238-.684-.178-1.518a13.87,13.87,0,0,0-1.249-2.192,2.759,2.759,0,0,0-.852-.132c-.3.031-.46.15-.488.356q.758,1.43,1.518,2.9c.474.985.952,1.937,1.427,2.863q.629,1.382,1.162,2.635a17.664,17.664,0,0,1,.848,2.142c.419.716.834,1.459,1.253,2.234.415.747.848,1.518,1.295,2.325q.67,1.162,1.386,2.411.712,1.162,1.472,2.366c.507.807,1.03,1.6,1.564,2.37q.848,1.115,1.741,2.188a20.932,20.932,0,0,0,1.878,2.056,19.685,19.685,0,0,0,2.01,1.832c.415.533.834,1.057,1.249,1.564.447.474.911.921,1.386,1.34q1.387,1.25,2.817,2.411,2.9,2.14,6.031,4.868c.387.178.771.373,1.158.579q.629.315.67-.264-4.062-3.487-7.9-7.284-3.842-3.754-7.193-7.726m-27.382-50.794c-.3-1.1-.611-2.157-.939-3.173a18.408,18.408,0,0,1-.807-3.168q-.308-1.655-.488-3.533-.137-1.873-.223-3.8c-.032-.652-.06-1.295-.091-1.919s-.059-1.249-.091-1.878a25.8,25.8,0,0,0-.31-3.528,2.262,2.262,0,0,0,.269-1.518,4.4,4.4,0,0,1,.087-2.142,3.2,3.2,0,0,0-.533-.583c-.182-.178-.329-.132-.447.137a1.263,1.263,0,0,0-.314.8,26.732,26.732,0,0,1,.132,3.4,24.967,24.967,0,0,0,.314,3.214,44.768,44.768,0,0,0-.046,9.563,63.126,63.126,0,0,0,1.7,9.336q1.2,4.691,2.9,9.559,1.7,4.916,3.752,10.407a58.288,58.288,0,0,1,1.65,2.416q.854,2.14,1.878,4.6,1.074,2.455,2.366,4.782a30.142,30.142,0,0,0,2.726,4.107,9.549,9.549,0,0,0,2.9,2.5q-1.607-2.947-3.483-6.3-1.922-3.35-3.71-6.879a112.687,112.687,0,0,1-5.224-13q-2.277-6.789-3.975-13.4m14.783-89.029c.629-.834.73-1.295.314-1.386-.625.862-.729,1.326-.314,1.386m38.153-32.031c-.388.209-.479.223-.269.045q.267-.267.533-.492c.15-.178-.013-.147-.488.091q.088.178-.629.534a7.585,7.585,0,0,0-1.117.628c.032.178.329.147.893-.091a2.346,2.346,0,0,0,1.076-.715m70.581,14.431a6.754,6.754,0,0,0-1.386-.447,7.252,7.252,0,0,0-1.7-.182,18.669,18.669,0,0,0-3.66.182,24.222,24.222,0,0,0-3.082.625,2.406,2.406,0,0,0,.579.893,19.585,19.585,0,0,0,3.528-.045,26.766,26.766,0,0,0,2.771-.314,3.164,3.164,0,0,0,1.787.67,11.236,11.236,0,0,0,2.457.314,1.93,1.93,0,0,0-1.295-1.7M258,17.68q-.13-.717-1.965-1.249c-.028.237.21.447.716.625A4.843,4.843,0,0,1,258,17.68m55.662,36.408a61.552,61.552,0,0,1,8.711,9.381,74.042,74.042,0,0,1,7.416,11.883,3.253,3.253,0,0,0,.67.534c.209.091.461.478.761,1.162a5.356,5.356,0,0,1,.579,1.787,5.376,5.376,0,0,0,.716,1.923c.447-.182.533-.7.269-1.564q-.362-1.3-.67-2.5-.315-1.251.447-1.386-3.89-5.894-8.086-11.437a105.646,105.646,0,0,0-9.249-10.63c-.952-.538-1.7-.625-2.233-.269.238.269.447.506.624.715.182.237.2.37.046.4m19.523,77.683c0,.507.013,1.012.046,1.518a.279.279,0,0,1-.36-.087,1.066,1.066,0,0,0-.269-.269c.06-.3.122-.579.182-.848.087-.238.223-.342.4-.314" transform="translate(0)" fill="#558742" fill-rule="evenodd"/>
      <path id="Trazado_2" data-name="Trazado 2" d="M18.849-17.934q-.213-.308-.274-.385a.406.406,0,0,1-.03-.293q.061-.185.106-.293a.586.586,0,0,0,.046-.231,1.1,1.1,0,0,0-.046-.4.366.366,0,0,1-.046-.154q.061-.277.015-.324a.149.149,0,0,1-.046-.108,1.282,1.282,0,0,0,.061-.493.916.916,0,0,1-.03-.216q-.03-.154-.046-.262a1.193,1.193,0,0,0-.076-.262,4.387,4.387,0,0,1-.335-.616,1.026,1.026,0,0,1-.335-.431,1.7,1.7,0,0,0-.426-.308.37.37,0,0,1-.213-.216q-.183-.123-.335-.247l-.3-.246q-.3-.154-.335-.277a.673.673,0,0,1-.243-.092.428.428,0,0,0-.243-.062.79.79,0,0,0-.152-.169.569.569,0,0,1-.152-.231,4.122,4.122,0,0,1-.441-.062.278.278,0,0,1-.2-.154,1.024,1.024,0,0,1-.517-.108,1.024,1.024,0,0,0-.517-.108l-.335-.2a.821.821,0,0,0-.426-.108.679.679,0,0,0-.319.015,3.506,3.506,0,0,1-.35.077,2.488,2.488,0,0,1-.456-.031.842.842,0,0,0-.289-.046.332.332,0,0,1-.106.015q-.639-.031-1.019-.046a5.971,5.971,0,0,0-.745.015,2.193,2.193,0,0,1-.274-.015,1.934,1.934,0,0,0-.243-.015.8.8,0,0,1-.38.062.37.37,0,0,0-.137-.031h-.4a3.189,3.189,0,0,0-.456.031,1.935,1.935,0,0,0-.243.015.3.3,0,0,0-.182.077.942.942,0,0,1-.091.37l-.03.524v.678a1.576,1.576,0,0,1-.061.37.276.276,0,0,0-.03.123.589.589,0,0,0,.03.185.691.691,0,0,1,.03.216,2.569,2.569,0,0,0-.03.647,1.131,1.131,0,0,1,0,.37q0,.154-.015.308a.8.8,0,0,1-.076.277q.03.246-.015.293a.19.19,0,0,0-.046.139,1.88,1.88,0,0,1,.061.447,1.065,1.065,0,0,1-.091.416,2.358,2.358,0,0,1,.015.709q-.046.37-.106.709-.03.185-.046.324a.611.611,0,0,0,.046.293.542.542,0,0,0-.046.293q.015.169.015.324a1.2,1.2,0,0,0-.076.4.98.98,0,0,1,.015.154v.216a.691.691,0,0,1-.03.216,4.153,4.153,0,0,1-.122.678.486.486,0,0,0,0,.339,4.318,4.318,0,0,0,.4.247.278.278,0,0,1,.182,0l.182.062a1.513,1.513,0,0,0,.35.015.119.119,0,0,1,.076-.015h.487a2.186,2.186,0,0,1,.365.031,2.379,2.379,0,0,0,.4.031,1.179,1.179,0,0,0,.259-.031,1.311,1.311,0,0,1,.289-.031q.274,0,.639-.015t.73-.015a3.147,3.147,0,0,1,.882,0q.3-.154.38-.123a.117.117,0,0,0,.137-.031.5.5,0,0,0,.061-.216.917.917,0,0,1,.03-.216q.03-.154.046-.246a2.151,2.151,0,0,0,.015-.308,6.394,6.394,0,0,1,.137-.647,1.388,1.388,0,0,0,.015-.616.414.414,0,0,1,.3-.185,1.7,1.7,0,0,0,.319-.015.137.137,0,0,1,.106.015q.274.37.213.585a1.05,1.05,0,0,1-.152.339q-.091.339-.122.339a.817.817,0,0,1,.046.308.351.351,0,0,1-.106.185,3.153,3.153,0,0,1-.015.678,1.542,1.542,0,0,0,.046.678.57.57,0,0,0-.046.277.25.25,0,0,1-.076.216,1.332,1.332,0,0,1,.152.524,2.281,2.281,0,0,1-.015.277,1.112,1.112,0,0,0,.015.308,1.8,1.8,0,0,1,.167.416.483.483,0,0,0,.076.2.6.6,0,0,0,.091.4,1.949,1.949,0,0,1,.015.4.767.767,0,0,1-.076.246,1.668,1.668,0,0,1-.639.123.375.375,0,0,1-.274-.246l-.122-.37a5.163,5.163,0,0,1-.061-.678.767.767,0,0,0-.122-.431,5.156,5.156,0,0,1-.061-.678v-.524a.893.893,0,0,0-.547-.169q-.365-.015-.608-.015-.335-.154-.4-.077a.321.321,0,0,1-.152.108.429.429,0,0,0-.228,0,.817.817,0,0,1-.228.031,1.392,1.392,0,0,0-.335-.015.21.21,0,0,1-.091.015H9.39a1.965,1.965,0,0,1-.441-.031.714.714,0,0,0-.2-.031,1.041,1.041,0,0,0-.3.046,1.146,1.146,0,0,1-.335.046,3.133,3.133,0,0,1-.471-.062.714.714,0,0,0-.2-.031,1.342,1.342,0,0,1-.532.015.549.549,0,0,0-.289-.015.166.166,0,0,0-.015.185.141.141,0,0,1-.046.185,1.824,1.824,0,0,1,.061.616,1.45,1.45,0,0,1-.03.354.669.669,0,0,0-.03.169,1.338,1.338,0,0,1-.03.555.733.733,0,0,1,.03.339.276.276,0,0,0-.03.123.848.848,0,0,0,.03.231.2.2,0,0,1-.061.2.834.834,0,0,1,.061.308v.339a.93.93,0,0,0,.046.293.93.93,0,0,1,.046.293.588.588,0,0,1-.03.185.588.588,0,0,0-.03.185.848.848,0,0,0,.03.231.848.848,0,0,1,.03.231,2.342,2.342,0,0,0-.015.431.513.513,0,0,1,.015.123,1.657,1.657,0,0,1-.015.231.607.607,0,0,0,.015.231.463.463,0,0,0,.061.231,1.137,1.137,0,0,1,.091.2.882.882,0,0,1,.015.277.339.339,0,0,0,.076.246V-6.2a.517.517,0,0,0,.046.2,1.538,1.538,0,0,1,.076.231.946.946,0,0,0,.03.277.588.588,0,0,1,.03.185.825.825,0,0,0,.046.462.829.829,0,0,1,.106.277q.274.277.274.339a.178.178,0,0,0,.061.123,2.234,2.234,0,0,1,.274.262,1,1,0,0,0,.3.231.612.612,0,0,0,.152.2q.091.077.182.169h.471a.62.62,0,0,0,.411-.154q.274.123.289.077t.046-.046a.99.99,0,0,0,.35-.123.536.536,0,0,1,.167-.092.413.413,0,0,1,.2.108,1.1,1.1,0,0,0,.167.139.577.577,0,0,0,.076.308.518.518,0,0,1,.076.277l-.426.585a1.052,1.052,0,0,0-.4,0,.123.123,0,0,1-.091.031,1.05,1.05,0,0,0-.259-.031,1.458,1.458,0,0,1-.289-.031,1.387,1.387,0,0,1-.2-.015,1.386,1.386,0,0,0-.2-.015A1.3,1.3,0,0,1,8.614-2.3a1.306,1.306,0,0,0-.259-.077.585.585,0,0,0-.228-.015,1.385,1.385,0,0,1-.2.015.736.736,0,0,0-.289-.077.247.247,0,0,1-.076.015.8.8,0,0,0-.365.015.766.766,0,0,1-.274.046,2.584,2.584,0,0,1-.289-.015,2.588,2.588,0,0,0-.289-.015,1.844,1.844,0,0,0-.259.015.511.511,0,0,1-.259-.046.811.811,0,0,1-.547.169,2.432,2.432,0,0,0-.608.046.461.461,0,0,0-.289-.046,2.184,2.184,0,0,1-.441-.015q-.091-.031-.2-.062a.645.645,0,0,0-.167-.031,1.367,1.367,0,0,1-.426.077,1.1,1.1,0,0,0-.182-.015.741.741,0,0,1-.243.015.107.107,0,0,0-.091.015.231.231,0,0,1-.167,0,.43.43,0,0,0-.228,0A2.216,2.216,0,0,0,2-2.205a.367.367,0,0,1-.274-.015.483.483,0,0,1-.213.077.744.744,0,0,0-.243.077,1.39,1.39,0,0,1-.563.185,3.538,3.538,0,0,0-.441.031l-.243.062a.988.988,0,0,1-.243.031A1.372,1.372,0,0,1-.632-1.82a.58.58,0,0,0-.441.062q-.3-.062-.319,0t-.106.031a.453.453,0,0,1-.228-.354A.414.414,0,0,1-1.59-2.5a.771.771,0,0,1,.259-.015.771.771,0,0,0,.259-.015A1.178,1.178,0,0,0-.83-2.621a.167.167,0,0,1,.213.031A1.034,1.034,0,0,0-.4-2.668a1.032,1.032,0,0,1,.213-.077A.848.848,0,0,1,.083-2.76a.848.848,0,0,0,.274-.015q.335-.123.4-.092a.194.194,0,0,0,.152,0,1.031,1.031,0,0,0,.213-.077A1.383,1.383,0,0,1,1.3-3.022a3.126,3.126,0,0,1,.365-.123,2.833,2.833,0,0,0,.487-.924A.458.458,0,0,0,2.272-4.3.546.546,0,0,1,2.3-4.47a.736.736,0,0,0,.061-.37.588.588,0,0,1-.03-.185,3.228,3.228,0,0,1,.122-.4,2.857,2.857,0,0,1,.015-.709q.046-.185.106-.4a2.1,2.1,0,0,0,.046-.246A.364.364,0,0,1,2.729-7a.425.425,0,0,1-.03-.354,1.239,1.239,0,0,0,.061-.354,3.122,3.122,0,0,1,.03-.508q.03-.169.061-.324A.8.8,0,0,0,2.866-8.8,1.657,1.657,0,0,1,2.85-9.03a1.174,1.174,0,0,0,.061-.462.513.513,0,0,1-.03-.154,2.019,2.019,0,0,0,.015-.4.513.513,0,0,1-.015-.123.76.76,0,0,0,0-.324.192.192,0,0,1-.03-.108q.061-.4,0-.462a1.168,1.168,0,0,1,.046-.262.123.123,0,0,0,.015-.077,2.1,2.1,0,0,1,.03-.832,1.282,1.282,0,0,0-.046-.385q-.046-.139-.076-.262a2.713,2.713,0,0,1,.046-.323.346.346,0,0,0,.015-.108L2.82-13.5a.588.588,0,0,1-.03-.185.289.289,0,0,1,0-.185.512.512,0,0,0,.03-.154.668.668,0,0,0-.03-.169q-.03-.108-.061-.231a2.049,2.049,0,0,1-.015-.431q.015-.216.015-.4a4.3,4.3,0,0,1-.106-.632q-.015-.231-.015-.447a4.909,4.909,0,0,1-.061-.493,1.506,1.506,0,0,1,0-.431,1.131,1.131,0,0,0,0-.37,2.472,2.472,0,0,1-.03-.4,1.159,1.159,0,0,1,.03-.277,1.16,1.16,0,0,0,.03-.277A.716.716,0,0,1,2.531-19a.192.192,0,0,0-.076-.231.584.584,0,0,0,.061-.262v-.354q.03-.431.046-.585t.015-.308a.848.848,0,0,0-.03-.231.849.849,0,0,1-.03-.231,1.213,1.213,0,0,0,.076-.462q-.015-.185-.015-.216.03-.216.03-.262a.251.251,0,0,1,.03-.108,2.017,2.017,0,0,0,.015-.4l-.046-.092a3.629,3.629,0,0,1,.015-.416,1.913,1.913,0,0,0,.015-.262,3.437,3.437,0,0,1-.03-.478,1.757,1.757,0,0,0-.061-.478.534.534,0,0,0,.046-.385.36.36,0,0,0-.2-.293l-.335.031a1.027,1.027,0,0,0-.411.077q-.046.046-.106-.015a1.232,1.232,0,0,1-.624.108.825.825,0,0,0-.35-.015,1,1,0,0,0-.35.062.579.579,0,0,1-.319.031l-.4.092A1.094,1.094,0,0,1-.678-24.7a1.246,1.246,0,0,1-.243-.077A1.419,1.419,0,0,0-1-24.959a.305.305,0,0,1,.015-.246.593.593,0,0,1,.274-.277q.182.031.35.046t.319.015a.4.4,0,0,0,.259-.015.1.1,0,0,1,.137.015.246.246,0,0,1,.182-.062.246.246,0,0,0,.182-.062q.4.062.441,0a.2.2,0,0,1,.167-.062,1.186,1.186,0,0,0,.487-.031.764.764,0,0,1,.35-.046.946.946,0,0,0,.38-.046,1.39,1.39,0,0,0,.182-.077.355.355,0,0,1,.152-.046,2.37,2.37,0,0,0,.365.092,2.189,2.189,0,0,0,.365.031.568.568,0,0,0,.182-.031.5.5,0,0,1,.152-.031,2.806,2.806,0,0,1,.319.031,3.337,3.337,0,0,1,.35.062,4.2,4.2,0,0,0,.7.062h.76a.549.549,0,0,1,.274-.046.223.223,0,0,0,.213-.108.666.666,0,0,1,.152.139.218.218,0,0,0,.182.077.3.3,0,0,0,.213-.015,1.684,1.684,0,0,0,.182-.108q.426.092.456.015a.118.118,0,0,1,.122-.077q.061.123.152.092a.781.781,0,0,1,.243-.031.49.49,0,0,0,.319.015.27.27,0,0,1,.137-.046,2.646,2.646,0,0,1,.76-.015,4.125,4.125,0,0,0,.791.015,2.572,2.572,0,0,1,.487-.015q.243.015.487.015.152.031.3.046a.483.483,0,0,0,.3-.077,1.608,1.608,0,0,1,.411.077.258.258,0,0,0,.228-.015.981.981,0,0,0,.35-.077.416.416,0,0,1,.411.077,1.422,1.422,0,0,1,.35-.046.119.119,0,0,0,.076.015,2.8,2.8,0,0,1,.76-.062,4.13,4.13,0,0,0,.517.031,3.416,3.416,0,0,1,.441.015.7.7,0,0,0,.137.015.5.5,0,0,0,.152-.031.568.568,0,0,1,.183-.031,1.708,1.708,0,0,1,.319.015.332.332,0,0,0,.106.015,1.432,1.432,0,0,0,.38-.046.341.341,0,0,1,.319.077,7.064,7.064,0,0,1,.745-.092q.411-.031.745-.031a3.169,3.169,0,0,1,.578.031,1.921,1.921,0,0,0,.3-.062.666.666,0,0,1,.213-.031,1.049,1.049,0,0,1,.471-.015.5.5,0,0,0,.2.046,1.961,1.961,0,0,0,.365-.015.134.134,0,0,1,.061-.015.919.919,0,0,0,.2.062.4.4,0,0,1,.2.092.934.934,0,0,1,.137.2.5.5,0,0,1,.076.2,2.223,2.223,0,0,1-.441.555.625.625,0,0,0-.228.37.891.891,0,0,0-.243.339.209.209,0,0,1-.183.154.594.594,0,0,1-.122.293.633.633,0,0,0-.122.324.922.922,0,0,1-.228.385q-.106.077-.046.293-.091.4-.122.585a2.687,2.687,0,0,0-.03.431.975.975,0,0,0,.03.262.2.2,0,0,1-.061.2,2.807,2.807,0,0,0,.213.385.407.407,0,0,1,.03.293.967.967,0,0,1,.122.339.555.555,0,0,0,.152.308.746.746,0,0,0-.015.262A2.686,2.686,0,0,1,20-19.29l.076.308a.656.656,0,0,1,.015.308.267.267,0,0,1-.061.169.171.171,0,0,0-.03.169q-.274.154-.5.293A1.109,1.109,0,0,1,18.849-17.934Zm3.376-2.927a.434.434,0,0,1-.319-.046,1.7,1.7,0,0,0-.228-.139q-.091-.37-.213-.37a.267.267,0,0,0-.061-.169q-.061-.077-.122-.169-.213-.37-.3-.508a.756.756,0,0,0-.243-.231q-.183-.216-.213-.262t-.122-.015q-.243-.216-.319-.277a1.647,1.647,0,0,1-.137-.123.294.294,0,0,1-.122-.169.141.141,0,0,0-.152-.108,2.557,2.557,0,0,0-.365-.493.323.323,0,0,0-.03-.246,1.369,1.369,0,0,1-.122-.246.974.974,0,0,1-.106-.293.361.361,0,0,0,.046-.077q0-.062-.015-.2a.465.465,0,0,1,.046-.262q.274-.339.213-.555a2.659,2.659,0,0,0,.243-.277,2.915,2.915,0,0,1,.335-.308q.091-.062.213-.154a.3.3,0,0,0,.213-.015.373.373,0,0,1,.243-.015.582.582,0,0,0,.259.077.246.246,0,0,1,.076-.015,2.862,2.862,0,0,0,.517.324l.335.139q.335.277.335.185a.081.081,0,0,1,.091-.092.6.6,0,0,1,.259-.4,1.9,1.9,0,0,0,.35-.277.269.269,0,0,0,.228-.031.536.536,0,0,1,.167-.092q.335-.154.35-.123a.049.049,0,0,0,.046.031,1.635,1.635,0,0,1,.608.031,1.6,1.6,0,0,0,.335.092.375.375,0,0,0,.3.246.769.769,0,0,1,.076.247.247.247,0,0,0,.107.185q.03.339.046.493a.82.82,0,0,1-.015.277,3.022,3.022,0,0,1-.122.632,1.44,1.44,0,0,1-.274.508,3.785,3.785,0,0,0-.319.678.719.719,0,0,1-.319.4.182.182,0,0,1-.076.169.182.182,0,0,0-.076.169q-.182.247-.274.354a.916.916,0,0,1-.183.169,1.742,1.742,0,0,1-.228.308.139.139,0,0,0-.046.123q-.243.308-.3.37a.253.253,0,0,0-.061.185.514.514,0,0,0-.213.139.257.257,0,0,1-.213.077l-.122.154m2.16,3.882q-.061.4-.076.508a1.656,1.656,0,0,0-.015.231q-.061.37-.076.416a.345.345,0,0,0-.015.108v.37a.2.2,0,0,0,0,.154.221.221,0,0,1-.03.185q-.122.339-.076.4a.206.206,0,0,1,.046.123,1.9,1.9,0,0,0-.03.555,1.586,1.586,0,0,1,.03.308q-.03.092-.061.169a.457.457,0,0,0-.03.169,1.831,1.831,0,0,0,.03.324,2.194,2.194,0,0,1,.03.385q-.03.277,0,.308a.127.127,0,0,1,.03.092q0,.277.03.293t.03.077a.586.586,0,0,1-.046.231.358.358,0,0,0-.015.231.8.8,0,0,0,.046.277.317.317,0,0,1-.046.277,2.2,2.2,0,0,0,.091.37.1.1,0,0,1-.03.123.8.8,0,0,1,.091.493q-.03.277-.091.585a.7.7,0,0,1,.076.478,1.07,1.07,0,0,0,.015.478.326.326,0,0,0,.046.169.856.856,0,0,1,.076.169.263.263,0,0,0-.046.246.382.382,0,0,1-.015.277,3.75,3.75,0,0,0,0,.678.975.975,0,0,1-.061.493.572.572,0,0,1,.046.169.291.291,0,0,0,.076.169,2.353,2.353,0,0,0-.046.585.885.885,0,0,1-.137.524q.152.339.091.37a1.693,1.693,0,0,0,.091.478q.061.139.122.293a.591.591,0,0,0,.274.216,1,1,0,0,0,.183.077.554.554,0,0,0,.213-.015h.243a.245.245,0,0,1,.183.123.554.554,0,0,0,.243-.185.288.288,0,0,1,.243-.123.236.236,0,0,1,.213.092.235.235,0,0,0,.213.092.543.543,0,0,0,.137.185.331.331,0,0,1,.106.185,1.243,1.243,0,0,0-.106.2.64.64,0,0,1-.137.2.514.514,0,0,0-.182.077,1.249,1.249,0,0,1-.183.108,1.585,1.585,0,0,0-.776-.108,1.586,1.586,0,0,1-.776-.108l-.669.031q-.335.031-.471.046a.231.231,0,0,1-.2-.046q-.213.062-.259.031a1,1,0,0,0-.106-.062q-.4.123-.426.031a1.754,1.754,0,0,1-.456.077q-.274.015-.517.015h-.3a.428.428,0,0,1-.243-.062.34.34,0,0,1-.243.031.438.438,0,0,0-.274.031q-.365.092-.4.092a.311.311,0,0,0-.122.062.936.936,0,0,1-.183.062.384.384,0,0,0-.183.092.952.952,0,0,0-.487.108.606.606,0,0,1-.517-.015.523.523,0,0,0-.2-.246q-.137-.092-.046-.339a.976.976,0,0,1,.4-.154h.182a1.244,1.244,0,0,1,.456-.139.243.243,0,0,0,.152-.015,1.185,1.185,0,0,1,.319-.2.835.835,0,0,0,.2-.077,1.164,1.164,0,0,0,.426-.277A.389.389,0,0,1,20.7-3.7a1.23,1.23,0,0,1,.183-.308.754.754,0,0,0,.152-.37A1.124,1.124,0,0,1,21.1-4.7a.192.192,0,0,0,.03-.108,3.236,3.236,0,0,0,.015-.539.733.733,0,0,1,.137-.478.41.41,0,0,1-.076-.246q-.015-.185.076-.246a.946.946,0,0,1-.076-.308.138.138,0,0,0,.015-.062Q21.13-6.966,21.161-7a.127.127,0,0,0,.03-.092,1.131,1.131,0,0,1,0-.37,2.272,2.272,0,0,0,.03-.37q-.03-.277-.076-.555a3.231,3.231,0,0,1-.046-.524.637.637,0,0,1,0-.277.262.262,0,0,0-.03-.216,1.529,1.529,0,0,1-.015-.709,2.955,2.955,0,0,0,.076-.647.957.957,0,0,0-.061-.324.209.209,0,0,1,.061-.262q-.122-.339-.076-.339t.046-.062a.512.512,0,0,0-.03-.154.588.588,0,0,1-.03-.185,1.342,1.342,0,0,1,.015-.216.222.222,0,0,1,.137-.154,1.161,1.161,0,0,1-.061-.416,3.435,3.435,0,0,0-.03-.478q-.03-.339-.046-.416a.229.229,0,0,1,.046-.169q-.091-.431-.091-.462v-.339a1.277,1.277,0,0,0-.061-.354.255.255,0,0,1-.03-.139.514.514,0,0,0,0-.262.192.192,0,0,1-.03-.108.671.671,0,0,0-.015-.339.483.483,0,0,1-.046-.216h-.274a.371.371,0,0,1-.213-.062.585.585,0,0,1-.456,0q-.274.031-.3-.062a.3.3,0,0,0-.122-.154q-.122-.062-.167-.031a.584.584,0,0,1-.167.062q-.243-.308-.335-.324t-.061-.139a1.092,1.092,0,0,1,.3-.308.569.569,0,0,0,.182.031h.152a.9.9,0,0,0,.365,0,.123.123,0,0,1,.091-.031.666.666,0,0,1,.213-.031h.213a.5.5,0,0,0,.259,0,.185.185,0,0,1,.106-.031q.3.031.319,0a.049.049,0,0,1,.046-.031.916.916,0,0,0,.426-.015.2.2,0,0,1,.122-.046,1.732,1.732,0,0,0,.669-.154q.243.031.259,0t.076-.031a4.093,4.093,0,0,0,.426-.092q.335-.123.4-.062.243-.154.274-.092t.091,0a.362.362,0,0,1,.335-.108,3.026,3.026,0,0,1,.4.046.866.866,0,0,1,.107.6A.538.538,0,0,1,24.385-16.979Zm8.3-1.417a2.188,2.188,0,0,0-.091.678q-.091.4-.122.524a1.661,1.661,0,0,0-.03.37.763.763,0,0,1-.03.293.254.254,0,0,0-.03.139.408.408,0,0,1,0,.231.192.192,0,0,0-.03.108,2.282,2.282,0,0,0,.015.277.43.43,0,0,1-.046.246.73.73,0,0,0,.274-.185,1.2,1.2,0,0,0,.061-.154,2.612,2.612,0,0,1,.243-.37l.243-.247.122-.123a1.516,1.516,0,0,0,.228-.324q.046-.108.228-.077a.815.815,0,0,1,.35-.4.282.282,0,0,0,.2-.216q.213-.062.289-.092t.2-.092a3.394,3.394,0,0,0,.365-.123A1.178,1.178,0,0,1,35.274-18q.335-.092.411-.123t.167-.062a.836.836,0,0,0,.38-.015q.106-.046.167.077h.3a.123.123,0,0,1,.091.031,1.693,1.693,0,0,1,.456,0,2.968,2.968,0,0,0,.426.031,1.242,1.242,0,0,0,.167-.015.16.16,0,0,1,.167.077.428.428,0,0,1,.319,0,1.55,1.55,0,0,1,.228.123,1.508,1.508,0,0,0,.426.139.191.191,0,0,1,.183.169q.183-.031.243.031a.228.228,0,0,0,.213.031.855.855,0,0,1,.4.339q.183-.062.243.046a.223.223,0,0,0,.213.108.515.515,0,0,0,.152.216.478.478,0,0,1,.122.092,2.884,2.884,0,0,1,.091.339q.122.339.167.339t.046.062l.152.37a.566.566,0,0,0,.061.385,1.255,1.255,0,0,1,.152.385,1.923,1.923,0,0,0,.091.493.834.834,0,0,1,.061.308V-12.7a1.324,1.324,0,0,1,0,.4.949.949,0,0,0,0,.339.69.69,0,0,0,.03.216q.03.092-.091.154a.914.914,0,0,1,.091.431.784.784,0,0,1-.091.185,2.6,2.6,0,0,1,.106.246.716.716,0,0,1,.015.339q-.03.092-.061.2a.74.74,0,0,0-.03.2,2.276,2.276,0,0,1,.015.431,2.009,2.009,0,0,0-.015.246q.03.339.03.493a1.092,1.092,0,0,0,.061.339,1.2,1.2,0,0,1-.061.154.96.96,0,0,0-.061.185q.061.308.03.339a.127.127,0,0,0-.03.092,1.191,1.191,0,0,1,.015.308.515.515,0,0,0-.015.123.482.482,0,0,0,.046.216.481.481,0,0,1,.046.216,1.856,1.856,0,0,0-.015.385,1.069,1.069,0,0,1,.015.2,3.584,3.584,0,0,0,.015.431,1.135,1.135,0,0,1,.015.185,1.288,1.288,0,0,1-.015.169.19.19,0,0,0,.046.169.213.213,0,0,0-.03.246.834.834,0,0,1,.061.308,1.484,1.484,0,0,0,.046.385,1.244,1.244,0,0,1,.046.324q.03.185.046.324A.311.311,0,0,0,42-3.484a1.209,1.209,0,0,1,.608.015.439.439,0,0,1,.213.293q.426.308.365.462a.428.428,0,0,1-.213.231.764.764,0,0,1-.35.077.429.429,0,0,1-.319-.123,1.027,1.027,0,0,1-.441.062,1,1,0,0,1-.167-.062q-.335-.185-.35-.123t-.107.031a.843.843,0,0,0-.319-.062h-.411a2.187,2.187,0,0,1-.365-.031,2.381,2.381,0,0,0-.4-.031,4.291,4.291,0,0,0-.776.092,3.46,3.46,0,0,1-.593.092,1.107,1.107,0,0,1-.334.092q-.152.031-.259.062a.94.94,0,0,1-.259.031.87.87,0,0,1-.183-.154.339.339,0,0,1-.122-.216.37.37,0,0,1,.167-.308.644.644,0,0,0,.228-.277h.4q.274-.216.319-.246a.185.185,0,0,1,.106-.031q-.061-.37.183-.37a.149.149,0,0,1-.076-.154,1.136,1.136,0,0,0,.015-.185,1.787,1.787,0,0,1,.015-.308.426.426,0,0,0,.015-.092,1.721,1.721,0,0,1,.015-.354.358.358,0,0,0,.046-.077q0-.4-.046-.416a.139.139,0,0,1-.076-.077.484.484,0,0,0,.061-.2,1.768,1.768,0,0,1,.061-.323,2.327,2.327,0,0,0-.076-.616.556.556,0,0,1,.015-.431.553.553,0,0,1-.015-.231.331.331,0,0,1,.076-.2.123.123,0,0,1-.015-.154.309.309,0,0,0,.015-.216A.628.628,0,0,1,38.6-8.4a.671.671,0,0,0,.046-.262.979.979,0,0,1,.015-.154A.255.255,0,0,0,38.619-9q.061-.37.076-.431a.656.656,0,0,0,.015-.154.418.418,0,0,1-.015-.185q.015-.062.046-.154.03-.37-.03-.385t-.03-.077a.728.728,0,0,0,.107-.539,1.474,1.474,0,0,1,.046-.632.928.928,0,0,0-.03-.293.165.165,0,0,1,0-.139,3.455,3.455,0,0,0,.076-.508q.015-.231.015-.354a2.285,2.285,0,0,0-.03-.678v-.924a.844.844,0,0,1,0-.324q.03-.108-.091-.169.061-.216-.015-.293a.349.349,0,0,1-.046-.293.892.892,0,0,0-.152-.354.3.3,0,0,1-.091-.108,2.348,2.348,0,0,0-.517-.8A.579.579,0,0,0,37.8-16.9a.233.233,0,0,1-.122-.139.485.485,0,0,1-.3-.031,2.5,2.5,0,0,0-.243-.108,2.218,2.218,0,0,0-.243-.077.438.438,0,0,0-.274.031,2.308,2.308,0,0,0-.7-.015.364.364,0,0,1-.335-.077.246.246,0,0,1-.183.062.14.14,0,0,0-.152.092,3.8,3.8,0,0,0-.517.154.658.658,0,0,0-.365.339q-.365.185-.38.247a.273.273,0,0,1-.076.123q-.243.216-.228.246t-.046.062q-.152.123-.152.2t-.091.077q-.152.37-.2.462t-.106.246a.315.315,0,0,0-.061.169.546.546,0,0,1-.03.169,1.348,1.348,0,0,1-.365.462,1.583,1.583,0,0,0-.015.37q.015.154-.106.123a.316.316,0,0,1-.076.231l-.137.139a2.67,2.67,0,0,1,.015.462.252.252,0,0,0,.015.154,1.849,1.849,0,0,1,.046.416.345.345,0,0,0-.015.108.849.849,0,0,0,.03.231.337.337,0,0,1,0,.2.576.576,0,0,0-.061.324q.03.077-.061.139.091.185.137.262a.326.326,0,0,1,.046.169q-.03.216,0,.246a.127.127,0,0,1,.03.092.779.779,0,0,1-.015.339,1.537,1.537,0,0,0-.046.37,2.143,2.143,0,0,0,.061.462.276.276,0,0,1,.03.123,2.59,2.59,0,0,1,.03.462,1.143,1.143,0,0,1-.015.185.384.384,0,0,0,.015.185,1.035,1.035,0,0,0,.061.246.276.276,0,0,1,.03.123q0,.462-.015.616t-.015.339a2.458,2.458,0,0,1,.076.616,1.231,1.231,0,0,0,.015.339q.03.123.076.262t.076.262a1.344,1.344,0,0,0-.061.293.112.112,0,0,0,.091.108,3.56,3.56,0,0,0-.061.354v.108a.893.893,0,0,0,.03.339.126.126,0,0,1,.03.092,1.092,1.092,0,0,0,.137.478.762.762,0,0,1,.137.2q.3.154.3.185t.061.031a.546.546,0,0,0,.259,0q.107-.031.259-.062.3-.062.471-.108a.68.68,0,0,1,.319-.015.461.461,0,0,1,.243.123.25.25,0,0,0,.243.062.336.336,0,0,0,.091.246l.152.154a1.717,1.717,0,0,1-.137.231q-.076.108.046.262a.361.361,0,0,1-.243.031A.666.666,0,0,0,35-2.529q-.213-.031-.426-.046a1.972,1.972,0,0,0-.426.015,1.294,1.294,0,0,0-.213.015q-.091.015-.213.046h-.335a.723.723,0,0,0-.38.031.354.354,0,0,1-.289,0,1.431,1.431,0,0,1-.4.092.224.224,0,0,1-.167.062.225.225,0,0,0-.167.062,1.02,1.02,0,0,0-.289-.015q-.076.015-.106-.077a.271.271,0,0,1-.152.077.271.271,0,0,0-.152.077,3.957,3.957,0,0,0-.548.031,1.542,1.542,0,0,1-.517-.031q-.3.154-.4.123a.278.278,0,0,0-.183,0,.325.325,0,0,0-.183.108.669.669,0,0,1-.152.139,1.547,1.547,0,0,1-.5.077.319.319,0,0,0-.289.139.285.285,0,0,0-.274.015.5.5,0,0,1-.274.077.448.448,0,0,1-.228-.062,2.078,2.078,0,0,0-.259-.123.773.773,0,0,1-.076-.308.512.512,0,0,0,.015-.123,3.784,3.784,0,0,1,.608-.385,1.662,1.662,0,0,1,.456-.108l.243-.123q.122-.062.274-.123a1.1,1.1,0,0,0,.213-.139.535.535,0,0,1,.243-.108,1.713,1.713,0,0,0,.106-.185.232.232,0,0,1,.137-.123.676.676,0,0,1,.107-.262.676.676,0,0,0,.106-.262q-.03-.246.015-.293a.149.149,0,0,0,.046-.108.447.447,0,0,0,0-.231.74.74,0,0,1-.03-.2A1.477,1.477,0,0,0,30-5.132a.063.063,0,0,1-.015-.046,1.079,1.079,0,0,1-.03-.416.337.337,0,0,0,0-.2.8.8,0,0,1-.046-.262.123.123,0,0,0,.015-.077.587.587,0,0,0-.046-.231.588.588,0,0,1-.046-.231q0-.37.015-.539t.015-.293a.636.636,0,0,0-.046-.216.134.134,0,0,1,.076-.185q-.061-.4-.091-.585l-.061-.37a1.581,1.581,0,0,1,.03-.431.276.276,0,0,0,.03-.123,1.319,1.319,0,0,1-.015-.324.256.256,0,0,0,.015-.077,1.08,1.08,0,0,0-.046-.308,1.19,1.19,0,0,1-.046-.339.811.811,0,0,0,.03-.246.535.535,0,0,1,.03-.216q.061-.062.03-.339t-.03-.4a2.273,2.273,0,0,1,.03-.37.417.417,0,0,0-.091-.339q.061-.431.107-.678a2.187,2.187,0,0,0,.015-.585.588.588,0,0,0-.03-.185.69.69,0,0,1-.03-.216v-.37a.413.413,0,0,0-.091-.246.393.393,0,0,0,.03-.4,2.885,2.885,0,0,0-.152-.493l-.3-.616a1.172,1.172,0,0,0-.213-.308.3.3,0,0,1-.2,0,1.063,1.063,0,0,1-.137-.123.733.733,0,0,1-.426.108,2.642,2.642,0,0,1-.456-.077.14.14,0,0,0-.152-.092.2.2,0,0,1-.183-.092,1.087,1.087,0,0,0-.259-.092.166.166,0,0,1-.106-.062.975.975,0,0,0-.03-.262.233.233,0,0,1,.03-.2.572.572,0,0,1,.4-.246,1.294,1.294,0,0,0,.213-.015.243.243,0,0,1,.152.015q.182.031.3.062a1.267,1.267,0,0,0,.3.031,1.2,1.2,0,0,0,.319-.046.341.341,0,0,1,.319.077l.335-.123a.661.661,0,0,1,.319-.077.157.157,0,0,0,.167-.108.705.705,0,0,0,.335-.031,2.53,2.53,0,0,1,.426-.185q.213-.123.335-.185.3-.123.487-.185a1.862,1.862,0,0,0,.243-.154l.091-.092a.373.373,0,0,1,.213-.092.2.2,0,0,0,.152-.062A1.615,1.615,0,0,1,32.688-18.4Zm22.751,2.28.152.308a2.308,2.308,0,0,1,.213.416q.03.108.061.2l.106.216a1.417,1.417,0,0,1,.076.185.95.95,0,0,1,0,.339.25.25,0,0,0,.122.277.578.578,0,0,1,.015.216.422.422,0,0,0,.046.216,1.039,1.039,0,0,0,.03.37.089.089,0,0,1,.03.062.78.78,0,0,0,0,.308.916.916,0,0,1,.03.216.722.722,0,0,1-.015.139,1.068,1.068,0,0,0-.015.2.81.81,0,0,0,.03.246.78.78,0,0,0,.091.185.9.9,0,0,0-.046.462.794.794,0,0,1,.046.277,2.834,2.834,0,0,0-.015.478.19.19,0,0,1-.046.169q.03.277,0,.308a.127.127,0,0,0-.03.092A2.555,2.555,0,0,1,56.2-9.153q.091.277.046.354a.279.279,0,0,0-.046.139,1.753,1.753,0,0,0,.03.339.3.3,0,0,1-.091.277.839.839,0,0,1,.046.277.217.217,0,0,0-.015.092.834.834,0,0,1-.015.37.635.635,0,0,0-.046.216q0,.123.015.339a1.037,1.037,0,0,1-.046.4,2.015,2.015,0,0,0,.046.447.38.38,0,0,1-.046.324.271.271,0,0,1,.03.277.227.227,0,0,0,.091.277,4.341,4.341,0,0,1-.061.662,1.984,1.984,0,0,0,0,.693.937.937,0,0,0,.122.231,1.135,1.135,0,0,1,.122.2,1.969,1.969,0,0,0,.319.046,1.553,1.553,0,0,0,.38-.015q.091,0,.243-.015a1.145,1.145,0,0,0,.243-.046.71.71,0,0,1,.137-.108.316.316,0,0,1,.167-.046q.243-.308.319-.4t.167-.185q.03-.4.122-.4-.03-.339.183-.431.4-.031.4.092.213.308.335.308a1,1,0,0,0-.122.154.442.442,0,0,0-.061.246,5.227,5.227,0,0,0-.365.539.829.829,0,0,1-.274.293,1.059,1.059,0,0,1-.152.37q-.091.123-.213.277a4.073,4.073,0,0,0-.563.154,1.6,1.6,0,0,1-.654.062,1.43,1.43,0,0,1-.654-.092q-.319-.123-.593-.216a.335.335,0,0,1-.2-.169.191.191,0,0,0-.2-.108,1.339,1.339,0,0,0-.213-.324,1.151,1.151,0,0,1-.122-.108.315.315,0,0,0-.243-.277,3.238,3.238,0,0,1-.167-.324,1.533,1.533,0,0,0-.2-.323,1.647,1.647,0,0,0-.091-.339,1.006,1.006,0,0,1-.061-.37,3.224,3.224,0,0,1-.167-.324q-.076-.169-.137-.324a.679.679,0,0,1-.137.216.743.743,0,0,0-.106.092,3.515,3.515,0,0,1-.213.431,1.334,1.334,0,0,0-.213.277.239.239,0,0,1-.03.092.594.594,0,0,1-.274.277.264.264,0,0,1-.076.216.331.331,0,0,0-.106.185.536.536,0,0,0-.289.231,2.709,2.709,0,0,0-.2.385.184.184,0,0,0-.137.046.291.291,0,0,1-.2.046.66.66,0,0,1-.167.169.254.254,0,0,1-.259.015.477.477,0,0,1-.456.216,2.007,2.007,0,0,0-.624.2.33.33,0,0,1-.35.015.734.734,0,0,1-.365.154.961.961,0,0,0-.365.123q-.274-.123-.3-.077a.231.231,0,0,1-.091.077.438.438,0,0,0-.274-.031.318.318,0,0,1-.274-.092,2.584,2.584,0,0,1-.289-.015q-.137-.015-.289-.046a1.626,1.626,0,0,1-.487-.2.353.353,0,0,0-.335-.046,1.435,1.435,0,0,1-.4-.216,1.016,1.016,0,0,0-.4-.185q-.243-.277-.289-.339a.131.131,0,0,0-.107-.062l-.213-.4q-.274-.216-.259-.247a.051.051,0,0,0-.015-.062l-.335-.493A.671.671,0,0,0,44.9-4.84a1.656,1.656,0,0,1-.137-.123q-.061-.308-.076-.478a1.138,1.138,0,0,1,.015-.324,3.859,3.859,0,0,0-.061-.493,1.159,1.159,0,0,1-.03-.277q.03-.154.076-.324t.076-.324a1.112,1.112,0,0,0,.015-.308.25.25,0,0,1,.076-.216.372.372,0,0,1,.076-.339.2.2,0,0,0,.046-.246.4.4,0,0,0,.243-.324.4.4,0,0,1,.274-.324.477.477,0,0,1,.167-.324.606.606,0,0,0,.2-.324.5.5,0,0,0,.228-.169.294.294,0,0,1,.259-.108,1.108,1.108,0,0,1,.228-.293.071.071,0,0,0,.046-.077,1.145,1.145,0,0,0,.411-.123.8.8,0,0,1,.137-.092,1.47,1.47,0,0,0,.335-.123.123.123,0,0,1,.091-.031q.4-.092.608-.154t.365-.092q.243.092.274.031a.2.2,0,0,1,.091-.092.694.694,0,0,1,.243-.062,2.438,2.438,0,0,0,.3-.031.838.838,0,0,1,.365-.031.128.128,0,0,0,.122,0,1.1,1.1,0,0,0,.35-.123,1.13,1.13,0,0,1,.319-.123.421.421,0,0,1,.2-.015,1.244,1.244,0,0,0,.167.015q.335-.031.441-.046a1.241,1.241,0,0,1,.167-.015,1.076,1.076,0,0,0,.274-.092,1.076,1.076,0,0,1,.274-.092,1.264,1.264,0,0,0,.319.015.351.351,0,0,1,.076-.046.661.661,0,0,1,.517.092.324.324,0,0,1,.183-.062.324.324,0,0,0,.183-.062,1.82,1.82,0,0,1-.03-.724,1.423,1.423,0,0,0,.061-.416,1.289,1.289,0,0,0-.015-.169,1.29,1.29,0,0,1-.015-.169q-.122-.431-.122-.462a.589.589,0,0,1-.03-.185.717.717,0,0,1,.061-.246.916.916,0,0,1-.061-.416.74.74,0,0,0,.03-.2,1.172,1.172,0,0,1-.076-.385.722.722,0,0,0,.015-.139q-.03-.154-.061-.262a.317.317,0,0,1,.03-.231,1.216,1.216,0,0,1-.091-.246,1.217,1.217,0,0,0-.091-.246q-.152-.431-.243-.478a.264.264,0,0,1-.122-.2.514.514,0,0,1-.213-.139,1.651,1.651,0,0,0-.122-.139,1.06,1.06,0,0,0-.487-.2.175.175,0,0,1-.182-.077l-.441-.123a.187.187,0,0,1-.137-.123,2.2,2.2,0,0,0-.821-.031.507.507,0,0,0-.2.092.508.508,0,0,1-.2.092,1.1,1.1,0,0,1-.319.015.673.673,0,0,0-.319.046.525.525,0,0,0-.213.108.365.365,0,0,1-.243.077q-.122.092-.228.169a.684.684,0,0,1-.289.108,2.472,2.472,0,0,0-.791.277,1.072,1.072,0,0,1-.4.277,2.908,2.908,0,0,0-.228.2,1.1,1.1,0,0,0-.137.169,6.719,6.719,0,0,0-.274.616.54.54,0,0,0,.061.493q.091.462.152.678a1.431,1.431,0,0,0,.183.4.164.164,0,0,0,.152.108.125.125,0,0,1,.122.139,2.125,2.125,0,0,1,.35.154.773.773,0,0,0,.38.092.371.371,0,0,0,.213-.062.252.252,0,0,1,.243,0,1.05,1.05,0,0,1,.243-.185.087.087,0,0,0,.061-.031q.061-.062.137-.154a.291.291,0,0,0,.076-.185q0-.308-.456-.4a1.773,1.773,0,0,0-.091.308.952.952,0,0,0,0,.339.747.747,0,0,1-.4.015,2.567,2.567,0,0,1-.335-.108.714.714,0,0,1-.046-.354,1.291,1.291,0,0,1,.076-.385q.182-.154.2-.216a.612.612,0,0,1,.046-.123q.213-.092.38-.154a.83.83,0,0,1,.228-.062.365.365,0,0,1,.243.077.225.225,0,0,0,.243.015q.122.123.213.231a1.334,1.334,0,0,0,.213.2q.061.308.137.662a.713.713,0,0,1-.106.6.291.291,0,0,1-.167.123.273.273,0,0,0-.167.154.228.228,0,0,0-.213.031.384.384,0,0,1-.183.092.285.285,0,0,1-.167.077.285.285,0,0,0-.167.077,2.264,2.264,0,0,1-.912,0,1.45,1.45,0,0,1-.547-.231,1.5,1.5,0,0,0-.487-.231.208.208,0,0,0-.091-.185A.545.545,0,0,1,46.1-13.5a2.908,2.908,0,0,0-.152-.524,2.036,2.036,0,0,0-.122-.216,1.274,1.274,0,0,0-.061-.4.429.429,0,0,1-.061-.37.776.776,0,0,1,.061-.339,1.2,1.2,0,0,1,.152-.616q.061-.277.122-.308t0-.092a3.112,3.112,0,0,0,.365-.37,2.623,2.623,0,0,1,.335-.339q.426-.123.456-.246a.429.429,0,0,0,.259-.077.429.429,0,0,1,.259-.077.286.286,0,0,1,.259-.139.273.273,0,0,0,.259-.2q.091.154.289.031a.317.317,0,0,1,.35-.031.255.255,0,0,0,.167-.108.442.442,0,0,1,.137-.139,1.152,1.152,0,0,0,.365-.092,1.375,1.375,0,0,1,.35-.077.119.119,0,0,0,.076.015q.4-.062.532-.077t.2-.015a.505.505,0,0,0,.319-.031q.106-.062.259.092a1.509,1.509,0,0,0,.35.015.2.2,0,0,1,.137.015,2.5,2.5,0,0,1,.836.246.98.98,0,0,0,.5.154,2.016,2.016,0,0,0,.882.277q.274.185.274.231a.17.17,0,0,0,.061.108,2.8,2.8,0,0,0,.289.216q.015,0,.046.031a2.169,2.169,0,0,1,.365.262.747.747,0,0,0,.091.108q.213.339.274.354t.061.108m-3.771,5.392a1.055,1.055,0,0,0-.426.139.32.32,0,0,1-.213.077.522.522,0,0,0-.213-.015.944.944,0,0,1-.152.015q-.182.246-.3.246a1.394,1.394,0,0,0-.274.031,1.24,1.24,0,0,1-.35.123.3.3,0,0,0-.137.031q-.122.062-.228.108a.632.632,0,0,0-.2.139q-.213.308-.289.4a.606.606,0,0,1-.2.154.586.586,0,0,1-.046.231q-.046.108-.076.2a.435.435,0,0,0-.152.293.484.484,0,0,1-.03.2.474.474,0,0,0-.122.216.127.127,0,0,1-.03.092,1.226,1.226,0,0,0-.167.231.345.345,0,0,0-.015.108q-.243.37-.2.4t.046.154a.524.524,0,0,0-.061.231v.2a1.031,1.031,0,0,1-.061.339.18.18,0,0,0-.03.123.214.214,0,0,1,.046.185.883.883,0,0,0,.015.277,1.421,1.421,0,0,0,.076.185.152.152,0,0,1-.046.185q.183.4.213.462a1.078,1.078,0,0,1,.213.4.347.347,0,0,0,.03.154,1.576,1.576,0,0,0,.2.169.5.5,0,0,1,.167.231q.274.123.274.185a.276.276,0,0,0,.03.123.8.8,0,0,1,.3.062.883.883,0,0,0,.334.062,1.058,1.058,0,0,1,.4.046.228.228,0,0,0,.213-.015.911.911,0,0,1,.4-.046,1.329,1.329,0,0,0,.456-.046,1.247,1.247,0,0,1,.4-.154.335.335,0,0,0,.152-.031q.243-.123.259-.185T52-4.039a1.22,1.22,0,0,0,.274-.37.469.469,0,0,0,.3-.354.4.4,0,0,1,.3-.324.59.59,0,0,1,.182-.339,1.229,1.229,0,0,0,.046-.185.229.229,0,0,1,.106-.154q.091-.308.122-.447a.682.682,0,0,1,.122-.262.224.224,0,0,1,.167-.062A.224.224,0,0,0,53.8-6.6a1.424,1.424,0,0,0-.061-.416,1.533,1.533,0,0,1-.061-.447,2.28,2.28,0,0,1,.015-.277.881.881,0,0,0-.015-.277.963.963,0,0,1-.091-.293v-.139a1.22,1.22,0,0,1-.061-.493,1.586,1.586,0,0,0,.03-.308,2.675,2.675,0,0,1-.122-.678q.03-.216-.015-.246a.1.1,0,0,1-.046-.092.976.976,0,0,1,.03-.262.317.317,0,0,0-.03-.231,2.273,2.273,0,0,0-.791.015A2.965,2.965,0,0,1,51.668-10.724ZM64.686-18.4a2.186,2.186,0,0,0-.091.678q-.091.4-.122.524a1.661,1.661,0,0,0-.03.37.766.766,0,0,1-.03.293.254.254,0,0,0-.03.139.408.408,0,0,1,0,.231.192.192,0,0,0-.03.108,2.283,2.283,0,0,0,.015.277.429.429,0,0,1-.046.246.729.729,0,0,0,.274-.185,1.2,1.2,0,0,0,.061-.154,2.624,2.624,0,0,1,.243-.37l.243-.247.122-.123a1.511,1.511,0,0,0,.228-.324q.046-.108.228-.077a.816.816,0,0,1,.35-.4.282.282,0,0,0,.2-.216q.213-.062.289-.092t.2-.092a3.4,3.4,0,0,0,.365-.123A1.178,1.178,0,0,1,67.271-18q.335-.092.411-.123t.167-.062a.835.835,0,0,0,.38-.015q.106-.046.167.077h.3a.123.123,0,0,1,.091.031,1.693,1.693,0,0,1,.456,0,2.968,2.968,0,0,0,.426.031,1.242,1.242,0,0,0,.167-.015.16.16,0,0,1,.167.077.428.428,0,0,1,.319,0,1.554,1.554,0,0,1,.228.123,1.508,1.508,0,0,0,.426.139.191.191,0,0,1,.182.169q.183-.031.243.031a.228.228,0,0,0,.213.031.856.856,0,0,1,.4.339q.183-.062.243.046a.224.224,0,0,0,.213.108.513.513,0,0,0,.152.216.478.478,0,0,1,.122.092,2.857,2.857,0,0,1,.091.339q.122.339.167.339t.046.062l.152.37a.566.566,0,0,0,.061.385,1.255,1.255,0,0,1,.152.385,1.924,1.924,0,0,0,.091.493.834.834,0,0,1,.061.308V-12.7a1.324,1.324,0,0,1,0,.4.951.951,0,0,0,0,.339.691.691,0,0,0,.03.216q.03.092-.091.154a.913.913,0,0,1,.091.431.784.784,0,0,1-.091.185,2.6,2.6,0,0,1,.106.246.716.716,0,0,1,.015.339q-.03.092-.061.2a.742.742,0,0,0-.03.2,2.288,2.288,0,0,1,.015.431,2.009,2.009,0,0,0-.015.246q.03.339.03.493a1.091,1.091,0,0,0,.061.339,1.205,1.205,0,0,1-.061.154.968.968,0,0,0-.061.185q.061.308.03.339a.126.126,0,0,0-.03.092,1.19,1.19,0,0,1,.015.308.512.512,0,0,0-.015.123.481.481,0,0,0,.046.216.482.482,0,0,1,.046.216,1.855,1.855,0,0,0-.015.385,1.069,1.069,0,0,1,.015.2,3.588,3.588,0,0,0,.015.431,1.136,1.136,0,0,1,.015.185,1.289,1.289,0,0,1-.015.169.19.19,0,0,0,.046.169.213.213,0,0,0-.03.246.833.833,0,0,1,.061.308,1.486,1.486,0,0,0,.046.385,1.244,1.244,0,0,1,.046.324q.03.185.046.324a.311.311,0,0,0,.167.231,1.209,1.209,0,0,1,.608.015.438.438,0,0,1,.213.293q.426.308.365.462a.429.429,0,0,1-.213.231.764.764,0,0,1-.35.077.429.429,0,0,1-.319-.123,1.028,1.028,0,0,1-.441.062.993.993,0,0,1-.167-.062q-.335-.185-.35-.123t-.106.031a.843.843,0,0,0-.319-.062H72.5a2.189,2.189,0,0,1-.365-.031,2.38,2.38,0,0,0-.4-.031,4.29,4.29,0,0,0-.776.092,3.463,3.463,0,0,1-.593.092,1.107,1.107,0,0,1-.335.092q-.152.031-.259.062a.941.941,0,0,1-.259.031.868.868,0,0,1-.182-.154.339.339,0,0,1-.122-.216.37.37,0,0,1,.167-.308.644.644,0,0,0,.228-.277h.4q.274-.216.319-.246a.186.186,0,0,1,.106-.031q-.061-.37.183-.37a.149.149,0,0,1-.076-.154,1.136,1.136,0,0,0,.015-.185,1.8,1.8,0,0,1,.015-.308.426.426,0,0,0,.015-.092,1.721,1.721,0,0,1,.015-.354.358.358,0,0,0,.046-.077q0-.4-.046-.416a.139.139,0,0,1-.076-.077.485.485,0,0,0,.061-.2,1.768,1.768,0,0,1,.061-.323,2.327,2.327,0,0,0-.076-.616.555.555,0,0,1,.015-.431.555.555,0,0,1-.015-.231.331.331,0,0,1,.076-.2.123.123,0,0,1-.015-.154.308.308,0,0,0,.015-.216A.628.628,0,0,1,70.6-8.4a.671.671,0,0,0,.046-.262.979.979,0,0,1,.015-.154A.254.254,0,0,0,70.617-9q.061-.37.076-.431a.656.656,0,0,0,.015-.154.418.418,0,0,1-.015-.185q.015-.062.046-.154.03-.37-.03-.385t-.03-.077a.727.727,0,0,0,.106-.539,1.473,1.473,0,0,1,.046-.632.925.925,0,0,0-.03-.293.165.165,0,0,1,0-.139,3.436,3.436,0,0,0,.076-.508q.015-.231.015-.354a2.288,2.288,0,0,0-.03-.678v-.924a.843.843,0,0,1,0-.324q.03-.108-.091-.169.061-.216-.015-.293a.35.35,0,0,1-.046-.293.894.894,0,0,0-.152-.354.3.3,0,0,1-.091-.108,2.347,2.347,0,0,0-.517-.8A.581.581,0,0,0,69.8-16.9a.233.233,0,0,1-.122-.139.485.485,0,0,1-.3-.031,2.5,2.5,0,0,0-.243-.108,2.221,2.221,0,0,0-.243-.077.438.438,0,0,0-.274.031,2.309,2.309,0,0,0-.7-.015.364.364,0,0,1-.335-.077.246.246,0,0,1-.182.062.14.14,0,0,0-.152.092,3.8,3.8,0,0,0-.517.154.658.658,0,0,0-.365.339q-.365.185-.38.247a.274.274,0,0,1-.076.123q-.243.216-.228.246t-.046.062q-.152.123-.152.2t-.091.077q-.152.37-.2.462t-.106.246a.315.315,0,0,0-.061.169.546.546,0,0,1-.03.169,1.349,1.349,0,0,1-.365.462,1.582,1.582,0,0,0-.015.37q.015.154-.106.123a.316.316,0,0,1-.076.231l-.137.139a2.67,2.67,0,0,1,.015.462.251.251,0,0,0,.015.154,1.839,1.839,0,0,1,.046.416.345.345,0,0,0-.015.108.847.847,0,0,0,.03.231.337.337,0,0,1,0,.2.576.576,0,0,0-.061.324q.03.077-.061.139.091.185.137.262a.327.327,0,0,1,.046.169q-.03.216,0,.246a.127.127,0,0,1,.03.092.779.779,0,0,1-.015.339,1.54,1.54,0,0,0-.046.37,2.141,2.141,0,0,0,.061.462.276.276,0,0,1,.03.123,2.584,2.584,0,0,1,.03.462,1.137,1.137,0,0,1-.015.185.384.384,0,0,0,.015.185,1.04,1.04,0,0,0,.061.246.276.276,0,0,1,.03.123q0,.462-.015.616t-.015.339a2.453,2.453,0,0,1,.076.616,1.228,1.228,0,0,0,.015.339q.03.123.076.262t.076.262a1.342,1.342,0,0,0-.061.293.112.112,0,0,0,.091.108,3.552,3.552,0,0,0-.061.354v.108a.89.89,0,0,0,.03.339.127.127,0,0,1,.03.092,1.091,1.091,0,0,0,.137.478.765.765,0,0,1,.137.2q.3.154.3.185t.061.031a.547.547,0,0,0,.259,0q.106-.031.259-.062.3-.062.471-.108a.68.68,0,0,1,.319-.015.46.46,0,0,1,.243.123.25.25,0,0,0,.243.062.336.336,0,0,0,.091.246l.152.154a1.731,1.731,0,0,1-.137.231q-.076.108.046.262a.361.361,0,0,1-.243.031A.666.666,0,0,0,67-2.529q-.213-.031-.426-.046a1.972,1.972,0,0,0-.426.015,1.3,1.3,0,0,0-.213.015q-.091.015-.213.046h-.335a.723.723,0,0,0-.38.031.354.354,0,0,1-.289,0,1.432,1.432,0,0,1-.4.092.224.224,0,0,1-.167.062.225.225,0,0,0-.167.062,1.02,1.02,0,0,0-.289-.015q-.076.015-.106-.077a.271.271,0,0,1-.152.077.271.271,0,0,0-.152.077,3.956,3.956,0,0,0-.547.031,1.543,1.543,0,0,1-.517-.031q-.3.154-.4.123a.278.278,0,0,0-.183,0,.325.325,0,0,0-.183.108.667.667,0,0,1-.152.139,1.547,1.547,0,0,1-.5.077.319.319,0,0,0-.289.139.285.285,0,0,0-.274.015.5.5,0,0,1-.274.077.448.448,0,0,1-.228-.062,2.083,2.083,0,0,0-.259-.123.773.773,0,0,1-.076-.308.512.512,0,0,0,.015-.123,3.784,3.784,0,0,1,.608-.385,1.663,1.663,0,0,1,.456-.108l.243-.123q.122-.062.274-.123a1.092,1.092,0,0,0,.213-.139.535.535,0,0,1,.243-.108,1.726,1.726,0,0,0,.107-.185.231.231,0,0,1,.137-.123.674.674,0,0,1,.106-.262.677.677,0,0,0,.106-.262q-.03-.246.015-.293a.149.149,0,0,0,.046-.108.446.446,0,0,0,0-.231.741.741,0,0,1-.03-.2,1.476,1.476,0,0,0,.046-.354.063.063,0,0,1-.015-.046,1.079,1.079,0,0,1-.03-.416.337.337,0,0,0,0-.2.8.8,0,0,1-.046-.262.123.123,0,0,0,.015-.077.588.588,0,0,0-.046-.231.586.586,0,0,1-.046-.231q0-.37.015-.539t.015-.293a.634.634,0,0,0-.046-.216.134.134,0,0,1,.076-.185q-.061-.4-.091-.585l-.061-.37a1.581,1.581,0,0,1,.03-.431.276.276,0,0,0,.03-.123,1.319,1.319,0,0,1-.015-.324.256.256,0,0,0,.015-.077,1.08,1.08,0,0,0-.046-.308,1.191,1.191,0,0,1-.046-.339.814.814,0,0,0,.03-.246.535.535,0,0,1,.03-.216q.061-.062.03-.339t-.03-.4a2.272,2.272,0,0,1,.03-.37A.417.417,0,0,0,61.7-12.3q.061-.431.106-.678a2.182,2.182,0,0,0,.015-.585.589.589,0,0,0-.03-.185.69.69,0,0,1-.03-.216v-.37a.413.413,0,0,0-.091-.246.393.393,0,0,0,.03-.4,2.9,2.9,0,0,0-.152-.493l-.3-.616a1.174,1.174,0,0,0-.213-.308.3.3,0,0,1-.2,0,1.072,1.072,0,0,1-.137-.123.733.733,0,0,1-.426.108,2.644,2.644,0,0,1-.456-.077.14.14,0,0,0-.152-.092.2.2,0,0,1-.183-.092,1.087,1.087,0,0,0-.259-.092.166.166,0,0,1-.106-.062.975.975,0,0,0-.03-.262.233.233,0,0,1,.03-.2.572.572,0,0,1,.4-.246,1.294,1.294,0,0,0,.213-.015.243.243,0,0,1,.152.015q.183.031.3.062a1.266,1.266,0,0,0,.3.031,1.2,1.2,0,0,0,.319-.046.341.341,0,0,1,.319.077l.335-.123a.661.661,0,0,1,.319-.077.157.157,0,0,0,.167-.108.706.706,0,0,0,.335-.031,2.533,2.533,0,0,1,.426-.185q.213-.123.335-.185.3-.123.487-.185a1.859,1.859,0,0,0,.243-.154l.091-.092a.373.373,0,0,1,.213-.092.205.205,0,0,0,.152-.062A1.617,1.617,0,0,1,64.686-18.4Zm17,1.109a.726.726,0,0,0,.532.046.566.566,0,0,1,.5.077.33.33,0,0,1,.259-.015.567.567,0,0,0,.228.046.694.694,0,0,1,.3,0,.267.267,0,0,0,.122.031,5.2,5.2,0,0,1,.654-.015.393.393,0,0,0,.319-.139q.152.031.3.046a.384.384,0,0,1,.243.108q.03.123.061.216a.59.59,0,0,1,.03.185.481.481,0,0,1-.182.354,1.283,1.283,0,0,1-.335.169,2.2,2.2,0,0,1-.411-.139.316.316,0,0,0-.167-.046,1.815,1.815,0,0,0-.487,0,.987.987,0,0,1-.243.031,1.386,1.386,0,0,1-.35-.108.369.369,0,0,0-.38.077q-.243-.062-.289-.031a.186.186,0,0,1-.106.031q-.182.031-.213,0t-.183.031q-.091.123-.152.2a.278.278,0,0,0-.03.231q-.213.277-.183.354t-.091.139q.122.277.061.324a.306.306,0,0,0-.091.108q.152.216.091.277a.1.1,0,0,0-.03.123.475.475,0,0,1,.076.246.512.512,0,0,0-.015.123,1.159,1.159,0,0,0,.03.277.78.78,0,0,1,0,.308q-.152.308-.122.293t.03.046q.061.154.076.2a.3.3,0,0,0,.076.108,1.513,1.513,0,0,0-.106.385q-.046.262.076.354a.926.926,0,0,0-.076.539.813.813,0,0,1-.106.539q.122.339.061.354a.073.073,0,0,0-.061.077v.555a2.189,2.189,0,0,1-.061.37.917.917,0,0,0-.046.308.512.512,0,0,1,.015.123,1.135,1.135,0,0,1-.015.185A.254.254,0,0,0,81.353-9a.768.768,0,0,0-.03.37,1.532,1.532,0,0,1,0,.431,5.127,5.127,0,0,0-.061.585,1.586,1.586,0,0,1-.03.308,7.342,7.342,0,0,0,0,.955q.03.339.03.616a.392.392,0,0,1,.091.185.689.689,0,0,0,.091.216q-.061.308.015.339a.12.12,0,0,1,.076.123v.339q.122.339.152.462a.6.6,0,0,1,.122.277q0,.092.122.154a.421.421,0,0,0,.106.2.688.688,0,0,1,.137.231.511.511,0,0,0,.259.046.307.307,0,0,1,.228.077.464.464,0,0,1,.35.015q.2.077.411.139a.5.5,0,0,0,.456-.077.78.78,0,0,1,.456-.169,1.978,1.978,0,0,1,.213-.123,1.988,1.988,0,0,0,.213-.123q.091-.062.167-.123t.167-.123l.213-.431a.634.634,0,0,0,.2-.293.292.292,0,0,1,.076-.169.236.236,0,0,1-.015-.216.414.414,0,0,0,.046-.185.662.662,0,0,0-.076-.323q-.076-.139-.167-.293-.061-.062-.152-.139t-.183-.169a.137.137,0,0,1-.152.031.278.278,0,0,0-.183,0,.461.461,0,0,1-.243.077.125.125,0,0,0-.122.046,1.282,1.282,0,0,0-.213.37.178.178,0,0,1-.061.123q-.122.431.243.431a1.385,1.385,0,0,0,.213.339,1.825,1.825,0,0,1-.152.277.123.123,0,0,1-.091.031.657.657,0,0,1-.35.154.153.153,0,0,1-.167-.123q-.213.062-.243-.031t-.183-.123a4.558,4.558,0,0,0-.183-.493A.463.463,0,0,0,83-4.963q.061-.185.107-.354a.326.326,0,0,1,.228-.231,1.034,1.034,0,0,0,.107-.4.252.252,0,0,1,.015-.154,1.381,1.381,0,0,1,.274-.339.464.464,0,0,0,.152-.185l.669-.123a1.833,1.833,0,0,1,.669,0,.243.243,0,0,1,.137.108q.046.077.228.046a2.046,2.046,0,0,0,.3.524q.182.277.213.308t.122,0a1.479,1.479,0,0,1,.137.508.483.483,0,0,1-.076.2.346.346,0,0,1,.076.37.6.6,0,0,0-.015.4,3.438,3.438,0,0,1-.213.493q-.243.277-.335.277.061.092.03.123a.414.414,0,0,0-.03.216.232.232,0,0,0-.167.139,1.25,1.25,0,0,1-.106.2.408.408,0,0,0-.289.077.754.754,0,0,1-.2.139q-.335.031-.4.154-.213.062-.182.123t-.213.062a1.965,1.965,0,0,1-.289.092q-.228.062-.228.154a.73.73,0,0,0-.335.077.352.352,0,0,1-.3.015.843.843,0,0,1-.4.031.5.5,0,0,1-.334-.185,1.558,1.558,0,0,0-.4-.046.17.17,0,0,1-.122-.015,3.067,3.067,0,0,0-.365-.169.269.269,0,0,1-.122-.077A.673.673,0,0,1,81.11-2.5a1,1,0,0,1-.152-.123.651.651,0,0,0-.213-.123q-.152-.062-.243-.092a2.17,2.17,0,0,0-.152-.216.123.123,0,0,0-.091-.031.9.9,0,0,1-.183-.308q-.152-.308-.2-.308a.1.1,0,0,1-.076-.031,1.113,1.113,0,0,0-.213-.416.508.508,0,0,1-.122-.324q-.152-.246-.2-.324a.327.327,0,0,1-.046-.169,2.328,2.328,0,0,1-.167-.339.512.512,0,0,1-.015-.123q-.03-.123-.046-.2l-.046-.231q-.091-.277-.122-.354t-.061-.139a.748.748,0,0,1-.03-.231.224.224,0,0,0-.091-.2.485.485,0,0,0,.015-.324,1.492,1.492,0,0,0-.106-.324.725.725,0,0,0,.03-.37l-.061-.431a.385.385,0,0,1-.015-.185.542.542,0,0,0-.015-.216.511.511,0,0,1-.076-.447.4.4,0,0,0,.015-.324q.061-.277,0-.308a.2.2,0,0,1-.091-.092.553.553,0,0,0,.061-.246v-.216q-.03-.308-.03-.339a4.027,4.027,0,0,1-.091-.616l.091-.4v-.493q.03-.277,0-.293t-.03-.077a2.261,2.261,0,0,0,0-.539.276.276,0,0,1,.091-.262v-.493a1.539,1.539,0,0,1-.106-.6q.015-.262.015-.478a.587.587,0,0,0-.03-.185.692.692,0,0,1-.03-.216q-.061-.308-.03-.324a.049.049,0,0,0,.03-.046.748.748,0,0,0-.624-.262,1.777,1.777,0,0,0-.532.077.4.4,0,0,0-.243-.092,1.29,1.29,0,0,1-.335-.062,1.126,1.126,0,0,1-.228.185.4.4,0,0,1-.2.062q-.243-.031-.274,0t-.061-.031a.982.982,0,0,1-.243-.416.966.966,0,0,1,.03-.231.8.8,0,0,0,.487-.154,1.683,1.683,0,0,0,.684-.231,4.37,4.37,0,0,0,.5-.385,2.627,2.627,0,0,0,.274-.077q.03-.015.03-.077a.516.516,0,0,0,.183-.077,1.156,1.156,0,0,0,.122-.108,3.676,3.676,0,0,0,.471-.354.759.759,0,0,1,.259-.169.619.619,0,0,1,.2-.262,1.567,1.567,0,0,0,.259-.262,1.189,1.189,0,0,1,.335-.339,1.266,1.266,0,0,1,.106-.185q.046-.062.106-.154a.748.748,0,0,0,.152-.339,2.224,2.224,0,0,1,.578-.709,2.275,2.275,0,0,0,.061-.354q0-.077.061-.077a.978.978,0,0,1,.03-.262q.03-.108.061-.262a.18.18,0,0,0,.03-.169.553.553,0,0,1-.03-.2.725.725,0,0,0,.122-.447q-.03-.169.061-.231a.651.651,0,0,1-.061-.354.446.446,0,0,0,0-.231V-23.3a.253.253,0,0,1,.061-.185.534.534,0,0,0,.243-.108A.225.225,0,0,1,81.2-23.6q.243.308.274.339a.539.539,0,0,1,.152.277,1.316,1.316,0,0,1,.03.216,1.3,1.3,0,0,1-.076.308q-.015,0-.015.031a.648.648,0,0,1,.015.231.089.089,0,0,0,.046.108.277.277,0,0,0-.076.154.228.228,0,0,1-.106.154.493.493,0,0,1-.061.524.952.952,0,0,1,0,.478.579.579,0,0,0,.061.447,1.951,1.951,0,0,1,.03.57,1.225,1.225,0,0,0,0,.385.279.279,0,0,0,.046.139.39.39,0,0,1,.046.2,1.563,1.563,0,0,1,.046.385.473.473,0,0,0-.015.139.566.566,0,0,0,0,.262.976.976,0,0,1,.03.262v.2a.358.358,0,0,0,.061.2Zm10.706,1.294q.213-.185.274-.246a.388.388,0,0,0,.091-.154,2.257,2.257,0,0,0,.3-.4q.3-.216.365-.246a.2.2,0,0,0,.092-.092q.486-.277.79-.462a1.092,1.092,0,0,1,.381-.247.3.3,0,0,0,.136-.031q.366-.123.4-.277a1.112,1.112,0,0,0,.335-.092.541.541,0,0,1,.365,0q.152.031.3.046a.767.767,0,0,1,.273.077,1.147,1.147,0,0,1,.152.062,1.525,1.525,0,0,1,.152.092q.4.123.578.2a1.808,1.808,0,0,0,.335.108.741.741,0,0,0,.274.37.521.521,0,0,1,.213.4,2.69,2.69,0,0,0,.335.863,1.221,1.221,0,0,0-.03.462.7.7,0,0,1-.122.462,1.374,1.374,0,0,1-.243.924,1.577,1.577,0,0,1-.335.308.617.617,0,0,0-.243.277.673.673,0,0,0-.487.123.929.929,0,0,1-.366.123,2.926,2.926,0,0,0-.456.139.467.467,0,0,1-.213.046,2.346,2.346,0,0,1-.883-.308q-.273-.216-.258-.231t-.015-.077a.563.563,0,0,1-.137-.354.235.235,0,0,0-.137-.231.311.311,0,0,0,.137-.277.657.657,0,0,1,.045-.308,2.4,2.4,0,0,0,.213-.37l.183-.308a.806.806,0,0,1,.4-.154.692.692,0,0,1,.137-.108.446.446,0,0,1,.228-.046.975.975,0,0,1,.441-.062,1.88,1.88,0,0,1,.288.092,4.13,4.13,0,0,0,.077.431.615.615,0,0,1,.015.185.567.567,0,0,1-.335.231.472.472,0,0,1-.426-.046,1.606,1.606,0,0,0-.35.293,1.724,1.724,0,0,0-.106.231,1.8,1.8,0,0,1,.045.4q-.015.031.045.062a1.658,1.658,0,0,0,.335.077,1.072,1.072,0,0,0,.4.015.569.569,0,0,1,.288-.139.619.619,0,0,0,.2-.046.246.246,0,0,1,.182-.123q.092,0,.061-.123a.3.3,0,0,0,.243-.169.888.888,0,0,1,.182-.262.336.336,0,0,1,.015-.231q.046-.077.107-.169a2.412,2.412,0,0,1-.015-.462,1.5,1.5,0,0,0-.045-.462,1.1,1.1,0,0,0-.092-.2,1.139,1.139,0,0,1-.091-.2,2.4,2.4,0,0,1-.214-.37.772.772,0,0,1-.182-.092,1.921,1.921,0,0,0-.213-.123.266.266,0,0,0-.122-.031,1.266,1.266,0,0,1-.213-.031,1.823,1.823,0,0,0-.289-.108.533.533,0,0,1-.136-.046,1.381,1.381,0,0,0-.761.123q-.365.154-.425.169a.5.5,0,0,1-.122.015l-.289.293a.627.627,0,0,1-.38.169q-.365.308-.274.308a.609.609,0,0,0-.243.169q-.092.108-.213.231a.348.348,0,0,0-.229.169q-.045.108-.137.293a1.052,1.052,0,0,0-.258.385.575.575,0,0,1-.045.169,2.652,2.652,0,0,0-.152.293.439.439,0,0,0,0,.324.853.853,0,0,0-.107.354.334.334,0,0,1-.015.169,1.251,1.251,0,0,1-.076.431.085.085,0,0,0,.015.123q-.092.154-.061.231a.46.46,0,0,1,.03.169,3.2,3.2,0,0,1-.076.817.6.6,0,0,0,.045.478,1.62,1.62,0,0,1-.061.2,1.623,1.623,0,0,0-.061.2.921.921,0,0,0,.03.216.287.287,0,0,1-.061.246q.031.123.061.277a.791.791,0,0,1,0,.308.416.416,0,0,0-.015.293q.045.077.076.139a.932.932,0,0,1-.015.416.28.28,0,0,0-.045.139,4.369,4.369,0,0,0,.091.493.591.591,0,0,1,.03.185q-.061.277-.03.293t.03.077a.379.379,0,0,1,.016.185.934.934,0,0,0-.016.154,1.19,1.19,0,0,1,.092.354v.169a.437.437,0,0,0,0,.231.384.384,0,0,1,.03.139v.339a2.335,2.335,0,0,1,.015.431.386.386,0,0,0,.015.185,1.394,1.394,0,0,1,.061.678.533.533,0,0,1,.061.339,1.878,1.878,0,0,1,.152.524q.213.308.258.385a.743.743,0,0,0,.107.139,1.278,1.278,0,0,1,.244.185.325.325,0,0,0,.243.092.7.7,0,0,1,.425.077.639.639,0,0,0,.4.077.349.349,0,0,0,.213-.108.511.511,0,0,1,.213-.139,1.752,1.752,0,0,0,.182.108.241.241,0,0,1,.122.169q.244-.031.3.108a.374.374,0,0,0,.213.2.419.419,0,0,1,.03.277.423.423,0,0,0,.031.277,1.436,1.436,0,0,0-.259.216.2.2,0,0,1-.167.062.357.357,0,0,1-.152-.046,1.751,1.751,0,0,1-.182-.108.742.742,0,0,1-.274-.062.122.122,0,0,0-.091-.031q-.335-.092-.35-.031t-.077.031a.693.693,0,0,0-.335-.031q-.335-.092-.471-.123t-.289-.062a.572.572,0,0,1-.274,0,.265.265,0,0,0-.121-.031,1.372,1.372,0,0,0-.335.046.88.88,0,0,1-.366.015q-.273,0-.288.031T91.6-2.56a4.454,4.454,0,0,1-1.049,0,1.1,1.1,0,0,0-.745.123.845.845,0,0,0-.4-.031,2.6,2.6,0,0,1-.365.031.494.494,0,0,0-.258,0,.186.186,0,0,1-.107.031.817.817,0,0,1-.228-.031.306.306,0,0,0-.228.031.88.88,0,0,1-.456.092q-.152-.031-.335-.062-.03-.185-.091-.216a.2.2,0,0,1-.091-.092.645.645,0,0,1,.137-.339,1.078,1.078,0,0,1,.259-.216.469.469,0,0,0,.335,0,.469.469,0,0,1,.335,0,1.09,1.09,0,0,1,.4-.246A1.325,1.325,0,0,0,89-3.746a.7.7,0,0,1,.107-.139,1.046,1.046,0,0,0,.213-.37q.03-.062.076-.169a.663.663,0,0,0,.046-.262,2.523,2.523,0,0,1,.121-.6.417.417,0,0,0-.03-.416.8.8,0,0,0,.077-.262q.015-.139.045-.293a2.123,2.123,0,0,1-.122-.924.854.854,0,0,0-.06-.555A.448.448,0,0,1,89.52-8a.087.087,0,0,0,.015-.108,2.191,2.191,0,0,1,0-.894.981.981,0,0,0-.03-.262.852.852,0,0,1-.03-.231,5.389,5.389,0,0,0,.106-.555q.015-.154.015-.308-.03-.154-.045-.293a2.424,2.424,0,0,1-.015-.262q.092-.216.061-.246a.36.36,0,0,1-.061-.092q.061-.062.015-.216t.045-.216q-.121-.062-.091-.169a.853.853,0,0,0,.03-.231.356.356,0,0,0-.076-.2q-.077-.108.076-.169a.289.289,0,0,1,.03-.339.172.172,0,0,1-.091-.139v-.262q-.03-.216-.061-.37a.537.537,0,0,1,.031-.308,1.39,1.39,0,0,1-.077-.37.218.218,0,0,0,.015-.092,1.029,1.029,0,0,1-.06-.169.744.744,0,0,1-.03-.2,2.358,2.358,0,0,0-.152-.477.9.9,0,0,1-.092-.231.206.206,0,0,0-.182-.046.175.175,0,0,1-.182-.077q-.243.092-.274.062t-.091,0a.456.456,0,0,0-.167.046.139.139,0,0,1-.167-.015,1.379,1.379,0,0,0-.319.108.135.135,0,0,1-.137.015q-.4,0-.456-.077t-.152-.2a1.378,1.378,0,0,1-.411-.169q-.167-.108-.35-.231a.187.187,0,0,0-.03-.231q-.091-.077,0-.169a.68.68,0,0,1,.243-.216.494.494,0,0,1,.152-.031,3.82,3.82,0,0,1,.4.262,2.153,2.153,0,0,0,.183.139.157.157,0,0,1,.167-.031.645.645,0,0,0,.167.031l.7-.046a1.205,1.205,0,0,0,.365-.077h.38a.937.937,0,0,0,.229-.031q.091-.062.2-.139a.314.314,0,0,1,.258-.046.732.732,0,0,1,.4-.2.732.732,0,0,0,.4-.2.418.418,0,0,0,.274-.077.564.564,0,0,1,.273-.108.939.939,0,0,1,.365-.185,1.515,1.515,0,0,1,.214-.308q.151-.185.136-.262t.077-.046a.886.886,0,0,0,.015-.277.5.5,0,0,1,.015-.216.652.652,0,0,1,.122-.216,1.009,1.009,0,0,0,.121-.154.439.439,0,0,1,.411.015q.167.108.289.2a2.287,2.287,0,0,0,.03.37.25.25,0,0,1-.122.277q.061.247.015.277a.232.232,0,0,0-.076.092.774.774,0,0,0-.015.246.218.218,0,0,1,.015.092l-.061.431a1.031,1.031,0,0,1-.152.462.314.314,0,0,1,.061.169A.881.881,0,0,0,92.394-15.993Zm20.8,2.9a1.1,1.1,0,0,1,.273.216q.092.308.137.493a2.76,2.76,0,0,0,.107.339q-.092.308-.015.308t.106.092q.061.493.077.693a2.136,2.136,0,0,0,.076.416.708.708,0,0,1,.061.216.278.278,0,0,0,.03.123l-.061.339a2.2,2.2,0,0,0,.015.231.339.339,0,0,1-.046.231q-.121.308-.091.339t0,.092a.484.484,0,0,1-.045.216q-.046.092-.107.246a1.116,1.116,0,0,1-.045.385.663.663,0,0,0-.046.262,2.029,2.029,0,0,0-.121.216,2.126,2.126,0,0,1-.122.216,1.39,1.39,0,0,0-.137.354.225.225,0,0,1-.137.169q-.061.154-.03.2a.256.256,0,0,1,.03.139l-.228.231a.6.6,0,0,0-.137.354,2.226,2.226,0,0,1-.44.632,1.283,1.283,0,0,0-.319.416,1.6,1.6,0,0,1-.381.354.251.251,0,0,0-.136.2q-.152.308-.229.308t-.076.062q-.3.154-.3.277-.213.154-.213.185a.089.089,0,0,1-.03.062.153.153,0,0,0-.182.062,1.265,1.265,0,0,1-.152.185,2.16,2.16,0,0,0-.457.308l-.274.277q-.365.062-.38.031t-.076,0a3.194,3.194,0,0,0-.791.185q-.426.092-.441.046a.07.07,0,0,0-.076-.046,1.757,1.757,0,0,0-.4.123.37.37,0,0,1-.092.062,1.246,1.246,0,0,0-.167.015,1.248,1.248,0,0,1-.167.015.781.781,0,0,0-.319,0,.44.44,0,0,1-.167.031,2.651,2.651,0,0,1-.319-.046.267.267,0,0,0-.167.046.551.551,0,0,1-.3.077,1.921,1.921,0,0,0-.243-.015q-.243.031-.258,0a.171.171,0,0,0-.077-.062.526.526,0,0,1-.38-.108.26.26,0,0,0-.289-.046.437.437,0,0,0-.137-.139.259.259,0,0,1-.106-.169,6.248,6.248,0,0,1-.821-.277,4.117,4.117,0,0,1-.517-.277l-.274-.277a1.574,1.574,0,0,0-.273-.277.2.2,0,0,1-.092-.092q-.122,0-.152-.077t-.182-.046q-.182-.185-.182-.216t-.061-.062a2.875,2.875,0,0,1-.244-.339.972.972,0,0,0-.122-.154.211.211,0,0,1-.061-.154,2.019,2.019,0,0,1-.4-.339,1.156,1.156,0,0,1-.2-.185.378.378,0,0,0-.167-.123.831.831,0,0,0-.167-.339.537.537,0,0,1-.137-.185.553.553,0,0,0-.107-.339,1.784,1.784,0,0,1-.137-.123q-.061-.431-.152-.37a.556.556,0,0,0-.03-.2.437.437,0,0,1,0-.231.938.938,0,0,1-.152-.616,2.5,2.5,0,0,0-.03-.678.865.865,0,0,0-.091-.339.439.439,0,0,1-.061-.246,1.5,1.5,0,0,1,0-.6,3.235,3.235,0,0,0,.061-.6,1.3,1.3,0,0,0-.015-.462,1.811,1.811,0,0,0-.107-.277.512.512,0,0,0,.2-.431.459.459,0,0,1,.167-.4.776.776,0,0,1,.092-.4.782.782,0,0,0,.091-.4,2.378,2.378,0,0,1,.2-.293.085.085,0,0,0,.015-.108q.152-.216.183-.246l.091-.092q.182-.37.243-.478t.152-.262a.747.747,0,0,1,.229-.339.229.229,0,0,0,.106-.216,2.63,2.63,0,0,0,.578-.585,2.871,2.871,0,0,0,.243-.293q0-.015.03-.046a1.4,1.4,0,0,1,.381-.169q.106-.015.167-.169a.879.879,0,0,0,.365-.216l.122-.185q.3-.185.456-.262a.591.591,0,0,0,.244-.231,1.013,1.013,0,0,0,.456-.216,3.018,3.018,0,0,0,.3-.015.27.27,0,0,0,.213-.108,1.524,1.524,0,0,0,.5-.2q.077-.077.259-.015a.968.968,0,0,1,.335-.185,1.861,1.861,0,0,0,.425-.062.27.27,0,0,1,.122-.031,1.651,1.651,0,0,0,.578.139.192.192,0,0,1,.213.139,1.83,1.83,0,0,0,.258-.015.512.512,0,0,1,.259.046q.243.154.289.139a.136.136,0,0,1,.106.015q.152.062.289.108a1.468,1.468,0,0,1,.289.139q.091-.092.167,0a.113.113,0,0,0,.167.031,3.134,3.134,0,0,1,.578.277,1.954,1.954,0,0,1,.213.185.391.391,0,0,1,.335.123.337.337,0,0,0,.335.092q.3.185.35.323t.289.139a1.848,1.848,0,0,1,.274.231.135.135,0,0,0,.121.046l.274.277a.977.977,0,0,0,.152.123q.152.154.152.2t.061.077q.213.247.243.277a.177.177,0,0,1,.031.123l.41.277a.38.38,0,0,1,.137.339q.213.246.243.277a1.1,1.1,0,0,0,.137.431q.076.092-.045.154m-6.935-3.79a1.773,1.773,0,0,1-.426.062,1.124,1.124,0,0,0-.38.185.548.548,0,0,1-.137.123.886.886,0,0,1-.3.185q-.183.308-.214.308t-.091.062a.811.811,0,0,0-.2.2.2.2,0,0,1-.046.077.531.531,0,0,1-.167.2.357.357,0,0,0-.136.231,1.076,1.076,0,0,0-.244.308.388.388,0,0,1-.091.154.462.462,0,0,1-.077.37.61.61,0,0,0-.137.308,1.207,1.207,0,0,1-.213.477.371.371,0,0,0-.092.293l-.151.37q-.122.339-.167.462a2.174,2.174,0,0,0-.077.246,1.235,1.235,0,0,0-.045.185.275.275,0,0,1-.077.154.162.162,0,0,1,.031.169.655.655,0,0,0-.031.169q-.061.431-.076.57a.782.782,0,0,1-.076.262l.061.431a.729.729,0,0,1-.03.37,1.039,1.039,0,0,0,0,.508,2.261,2.261,0,0,1,.091.324.591.591,0,0,1-.03.185.2.2,0,0,0,0,.154,1.273,1.273,0,0,1,.045.339.111.111,0,0,0,.015.092,1.517,1.517,0,0,1,.016.354.424.424,0,0,0,.015.2,1.185,1.185,0,0,1,.045.354.726.726,0,0,0-.015.139.335.335,0,0,0,.061.185.155.155,0,0,1,0,.185q.213.154.092.493a.328.328,0,0,1,.136.231,1.172,1.172,0,0,0,.077.293,1.143,1.143,0,0,1,.167.385.348.348,0,0,0-.015.108.55.55,0,0,0,.106.246,1.089,1.089,0,0,1,.137.216q-.091.154,0,.231t0,.2a1.2,1.2,0,0,1,.517.739.948.948,0,0,0,.167.092q.077.031.2.092a.2.2,0,0,0,.107.246.282.282,0,0,1,.167.216h.319a.843.843,0,0,1,.319.062,2.372,2.372,0,0,0,.624.031,1.175,1.175,0,0,1,.38,0,2.3,2.3,0,0,1,.258.015.376.376,0,0,0,.2-.015.977.977,0,0,0,.288.015,1.607,1.607,0,0,1,.229-.015q.151-.031.273-.062a.884.884,0,0,1,.213-.031,1.2,1.2,0,0,0,.548-.185.332.332,0,0,1,.335-.062q.091-.185.425-.154a.425.425,0,0,0,.182-.169q.03-.077.152-.077a2.413,2.413,0,0,0,.137-.262.853.853,0,0,1,.045-.108,1.743,1.743,0,0,1,.3-.308,1.192,1.192,0,0,1,.092-.339l.213-.339a1.627,1.627,0,0,0,.076-.385.382.382,0,0,1,.137-.293,2.775,2.775,0,0,0-.015-.4.515.515,0,0,1-.015-.123,1.231,1.231,0,0,0,.182-.385.316.316,0,0,1,.061-.169.963.963,0,0,1-.015-.447.58.58,0,0,0,.046-.231.3.3,0,0,0,.015-.169,1.291,1.291,0,0,1-.015-.169q.03-.154.061-.324a2.014,2.014,0,0,0,.03-.354.592.592,0,0,0-.03-.185.29.29,0,0,1,0-.185,1.851,1.851,0,0,0,.045-.416.347.347,0,0,1-.015-.108v-.8a2.938,2.938,0,0,0-.03-.462.419.419,0,0,1,.091-.339.209.209,0,0,1-.091-.185.385.385,0,0,0-.061-.216,1.447,1.447,0,0,0,.061-.447.566.566,0,0,0-.152-.416,1.59,1.59,0,0,0-.03-.431q-.092-.308-.107-.385a.23.23,0,0,1,.045-.169,1.856,1.856,0,0,1-.182-.462.492.492,0,0,1-.03-.37.725.725,0,0,1-.152-.308.588.588,0,0,1-.106-.154.41.41,0,0,1-.046-.185q-.213-.339-.273-.354t0-.108a1.741,1.741,0,0,0-.274-.246.2.2,0,0,1-.091-.123l-.4-.277a.831.831,0,0,0-.335-.169.244.244,0,0,1-.182-.108.407.407,0,0,1-.213.046.528.528,0,0,1-.152-.077q-.425-.092-.562-.139a.345.345,0,0,1-.2-.262.694.694,0,0,1-.4-.216.327.327,0,0,1-.258-.031.359.359,0,0,0-.229-.062ZM119.617-19.6q.335-.031.365-.077t.091.015q0,.277.077.262t.076.046a.9.9,0,0,1,.015.632,1.282,1.282,0,0,0-.076.6l-.122.647a1.551,1.551,0,0,0-.167.616.339.339,0,0,1-.076.277.319.319,0,0,1,.03.231.981.981,0,0,0-.03.262q.091.216.045.293t.077.077l.182-.37a.242.242,0,0,0,.136-.108.246.246,0,0,1,.137-.108.356.356,0,0,1,.107-.216.335.335,0,0,0,.107-.185.389.389,0,0,0,.213-.185.957.957,0,0,1,.182-.247.375.375,0,0,1,.167-.092.2.2,0,0,0,.137-.154,1.844,1.844,0,0,0,.335-.154,1.031,1.031,0,0,0,.152-.123,4.824,4.824,0,0,1,.532-.169,4.328,4.328,0,0,1,.441-.077.785.785,0,0,0,.244-.031q.091-.031.243-.092.335-.092.411-.108a1.238,1.238,0,0,1,.228-.015,1.121,1.121,0,0,1,.319-.077q.167-.015.35-.046.335.092.335.123a.027.027,0,0,0,.03.031l.426.062a.836.836,0,0,0,.41.169.38.38,0,0,1,.228.046q.214.185.274.169a.171.171,0,0,1,.122.015,1.916,1.916,0,0,0,.365.354.244.244,0,0,1,.122.169,1.016,1.016,0,0,1,.365.385,1.007,1.007,0,0,0,.365.385,1.44,1.44,0,0,0,.182.37l.122.123a1,1,0,0,0,.152.262q.03.015.03.077.061.339.091.324t.03.046a4.641,4.641,0,0,1,.244.616.784.784,0,0,1,0,.431.572.572,0,0,1,.107.308.929.929,0,0,0-.016.154q.122.37.152.447a.349.349,0,0,1,.031.108.326.326,0,0,0,0,.2.459.459,0,0,1,.03.169,1.684,1.684,0,0,1,.061.616.574.574,0,0,0,.092.431.475.475,0,0,0-.046.293q.015.2-.076.262a1.184,1.184,0,0,1,.045.385,2.013,2.013,0,0,1-.045.262,1.353,1.353,0,0,1-.015.216.386.386,0,0,0,.015.185,1.582,1.582,0,0,1,.015.354.124.124,0,0,0-.015.077.835.835,0,0,1-.092.4.5.5,0,0,1,.046.277.671.671,0,0,1-.046.216.816.816,0,0,0-.03.246,1.6,1.6,0,0,1-.03.308l-.061.185-.061.185a.864.864,0,0,1-.137.431q-.076.062-.015.216a3.7,3.7,0,0,0-.228.416,2.886,2.886,0,0,0-.137.385l-.122.308a1.658,1.658,0,0,0-.091.339,4.754,4.754,0,0,0-.456.709l-.243.37a1.371,1.371,0,0,0-.182.431,2.7,2.7,0,0,0-.4.416,2.467,2.467,0,0,0-.151.262.9.9,0,0,0-.4.308q-.365.216-.487.293a.8.8,0,0,1-.273.108q-.182.123-.2.169a.985.985,0,0,1-.046.108,1.539,1.539,0,0,0-.532.354.69.69,0,0,1-.38.231l-.365.185h-.35a.349.349,0,0,0-.2.062,1,1,0,0,1-.151-.123,1.038,1.038,0,0,0-.152-.123,1.882,1.882,0,0,1-.411-.185.531.531,0,0,0-.167-.092q-.365-.092-.4-.154a.2.2,0,0,0-.122-.092q-.365-.062-.365-.031t-.061,0q-.092-.031-.167-.062t-.167-.062a.811.811,0,0,0-.152-.169.367.367,0,0,0-.244-.077,1.433,1.433,0,0,1-.35-.4.324.324,0,0,0-.2-.185.545.545,0,0,0-.03.4,1.4,1.4,0,0,1,.061.37.671.671,0,0,1-.03.169.672.672,0,0,0-.03.169v.308a.3.3,0,0,1-.061.216,1.8,1.8,0,0,0,.091.385.192.192,0,0,1,.03.108.515.515,0,0,1-.03.154.591.591,0,0,0-.03.185.29.29,0,0,0,0,.185.39.39,0,0,1,0,.216,2.027,2.027,0,0,0-.045.493.545.545,0,0,0,.076.246.591.591,0,0,0-.03.185.211.211,0,0,1-.061.154,1.183,1.183,0,0,1,.061.37.919.919,0,0,1-.061.339.711.711,0,0,1,.061.231v.262a.574.574,0,0,1,.061.339q-.03.123.03.154a2.062,2.062,0,0,1-.015.6.506.506,0,0,0,.015.324,1.036,1.036,0,0,0,.259.385.744.744,0,0,0,.441.231.421.421,0,0,0,.2.015,1.584,1.584,0,0,1,.228-.015.992.992,0,0,1,.244.031.21.21,0,0,0,.213-.062q.243.062.273.031a.37.37,0,0,1,.092-.062.429.429,0,0,0,.319,0,.447.447,0,0,0,.228-.154q.274.216.289.324a.162.162,0,0,0,.137.139q-.092.154-.137.216t.076.123q-.213.431-.4.447a1.143,1.143,0,0,0-.335.077q-.152-.031-.4-.092a.386.386,0,0,0-.4.092.1.1,0,0,0-.152-.031.2.2,0,0,1-.182.031.58.58,0,0,1-.288-.077.641.641,0,0,0-.319-.077l-.244-.246q-.365,0-.4.062a.122.122,0,0,1-.122.062q-.152-.031-.288-.062a.686.686,0,0,0-.289,0,1.155,1.155,0,0,0-.4.154,1.07,1.07,0,0,1-.4-.062,1.774,1.774,0,0,1-.365.108q-.122.015-.122-.046a.209.209,0,0,1-.213.062.884.884,0,0,0-.213-.031q-.4.123-.487.154a.751.751,0,0,0-.274.031.334.334,0,0,1-.152.031,1.9,1.9,0,0,0-.942.308,1.3,1.3,0,0,1-.517-.139.908.908,0,0,0-.244-.139q.031-.37.107-.416a.327.327,0,0,0,.107-.231l.182-.062a.274.274,0,0,1,.213.031.75.75,0,0,1,.228-.077.749.749,0,0,0,.229-.077q.182-.154.243-.139a.171.171,0,0,0,.122-.015.932.932,0,0,0,.35-.37,1.006,1.006,0,0,1,.319-.37.378.378,0,0,1,.045-.339A.378.378,0,0,0,117,2.493a.232.232,0,0,0,.077-.231.233.233,0,0,1,.076-.231,1.633,1.633,0,0,0-.061-.324.166.166,0,0,1,0-.139q.03-.154.076-.308a.372.372,0,0,0-.045-.308.726.726,0,0,0,.061-.37q-.03-.092.061-.062a1.456,1.456,0,0,1-.107-.493,1.659,1.659,0,0,0,.015-.185,2.9,2.9,0,0,0-.03-.4.563.563,0,0,1,.092-.4q-.031-.431-.061-.755a3.3,3.3,0,0,1,.03-.755,1.656,1.656,0,0,0,.016-.585.507.507,0,0,1,.076-.4q-.06-.524-.092-.847a3.635,3.635,0,0,1,0-.662q0-.154.016-.323t.015-.324a.835.835,0,0,1-.046-.277.218.218,0,0,0,.015-.092,1.038,1.038,0,0,0,0-.37q-.03-.092.092-.154-.06-.37-.092-.493a.641.641,0,0,1,0-.277.692.692,0,0,1,.016-.354.1.1,0,0,0-.016-.139q.031-.524.046-.755a.888.888,0,0,0-.046-.385q.061-.246.031-.293a.918.918,0,0,1-.061-.108.719.719,0,0,0,.03-.339.278.278,0,0,1-.03-.123,1.763,1.763,0,0,0,.03-.339v-.339a.719.719,0,0,0,.031-.339.576.576,0,0,1-.031-.185,2.838,2.838,0,0,1,.046-.524,1.617,1.617,0,0,0,.015-.493q-.061-.216-.015-.277t-.046-.092q0-.277.016-.539a.726.726,0,0,0-.077-.416,3.575,3.575,0,0,0,.061-.354q0-.046-.061-.077a.151.151,0,0,0,.045-.185.368.368,0,0,1-.045-.154l-.061-.37a1.428,1.428,0,0,0-.046-.4,1.013,1.013,0,0,1-.015-.4,2.08,2.08,0,0,0-.121-.493q-.061-.123,0-.185a1.9,1.9,0,0,0-.229-.57.791.791,0,0,1-.137-.385,1.363,1.363,0,0,0-.319-.169,1.436,1.436,0,0,1-.229-.077.751.751,0,0,0-.425-.046.769.769,0,0,1-.274.046.83.83,0,0,0-.258-.015.339.339,0,0,1-.107.015.9.9,0,0,0-.289.031.367.367,0,0,1-.137.031q-.335-.062-.4.062-.425,0-.487-.324a1.48,1.48,0,0,1,.03-.662,1.351,1.351,0,0,0,.244-.123,1.323,1.323,0,0,1,.243-.123.988.988,0,0,1,.487.308.461.461,0,0,1,.259-.062h.319a.98.98,0,0,0,.4.031.267.267,0,0,1,.122-.031,1.272,1.272,0,0,0,.35.015,1.174,1.174,0,0,0,.35-.077,1.325,1.325,0,0,1,.38-.077.332.332,0,0,0,.107.015,3.621,3.621,0,0,0,.471-.154.742.742,0,0,1,.472-.031.255.255,0,0,0,.167-.108.242.242,0,0,1,.137-.108,1.7,1.7,0,0,0,.562-.293,1.11,1.11,0,0,1,.532-.231.906.906,0,0,0,.229-.262q.076-.139.167-.293m-3.893,1.633a.532.532,0,0,0-.122.169.308.308,0,0,1-.122.139.735.735,0,0,1,.122-.185l.122-.123m6.9.924a6.32,6.32,0,0,1-.624.2.556.556,0,0,0-.319.2q-.092.031-.167.062t-.167.062q0,.216-.122.262a.247.247,0,0,0-.152.2,2.713,2.713,0,0,1-.3.354.326.326,0,0,0-.092.262,1.705,1.705,0,0,0-.335.354.308.308,0,0,1-.122.139.333.333,0,0,1-.03.308.659.659,0,0,1-.182.216.234.234,0,0,1-.015.246.377.377,0,0,0-.076.246q.03.37.03.524a.456.456,0,0,0,.091.277,2.023,2.023,0,0,0-.015.647,1.43,1.43,0,0,1,.045.339l-.06.339a.626.626,0,0,1,0,.277.515.515,0,0,0-.03.154,3.531,3.531,0,0,1,.03.755q-.03.2-.061.447a7.079,7.079,0,0,0-.015.8,5.862,5.862,0,0,1-.015.739.469.469,0,0,1,.061.4A2.935,2.935,0,0,0,120-7.89a1.8,1.8,0,0,1,.015.216,1.729,1.729,0,0,0-.061.339.8.8,0,0,0,.061.324.724.724,0,0,1,.06.293,1.351,1.351,0,0,1-.015.216q-.015.092-.045.216a3.59,3.59,0,0,1-.045.693,1.628,1.628,0,0,0-.045.354,1.84,1.84,0,0,0,.136.585.837.837,0,0,1,.107.308,1.225,1.225,0,0,1,.182.108.993.993,0,0,0,.213.108q.182.185.182.231a.1.1,0,0,0,.031.077,2.015,2.015,0,0,1,.593.37.754.754,0,0,0,.411.216.458.458,0,0,0,.243.169q.152.046.3.108.243.062.5.123a1.536,1.536,0,0,0,.532.031,1.027,1.027,0,0,1,.289-.169.262.262,0,0,0,.136-.077.665.665,0,0,0,.487-.216,1.075,1.075,0,0,0,.061-.169.717.717,0,0,1,.091-.2,4.172,4.172,0,0,0,.274-.447q.03-.077.061-.169a1.053,1.053,0,0,0,.152-.37.92.92,0,0,1,.03-.216,1.529,1.529,0,0,1,.122-.339.127.127,0,0,0,.03-.092.386.386,0,0,0,.015-.185.385.385,0,0,1,.015-.185A.723.723,0,0,0,125.228-6a.3.3,0,0,1,.015-.169q.152-.092.122-.185a.816.816,0,0,1-.03-.246,1.032,1.032,0,0,0,.061-.169.745.745,0,0,0,.03-.2.29.29,0,0,0,0-.185.39.39,0,0,1,0-.216q.122-.308.06-.324t-.03-.077q.092-.339.046-.324t-.016-.046a.627.627,0,0,0,.031-.339,2.053,2.053,0,0,1-.031-.339.862.862,0,0,0,.016-.262.33.33,0,0,1-.016-.108,1.566,1.566,0,0,0,.046-.385.347.347,0,0,1-.015-.108q.061-.308.076-.354a.857.857,0,0,1,.045-.108,2.449,2.449,0,0,0-.015-.354.727.727,0,0,1-.015-.139.922.922,0,0,0,.03-.385q-.03-.077-.061-.139a3.314,3.314,0,0,0-.03-.585.5.5,0,0,0,.03-.277.278.278,0,0,1-.03-.123,1.438,1.438,0,0,1,0-.416,1.438,1.438,0,0,0,0-.416,1.085,1.085,0,0,0-.045-.308.632.632,0,0,1-.016-.308q-.03-.062-.06-.139a.954.954,0,0,0-.091-.169.724.724,0,0,0,0-.431.763.763,0,0,1-.092-.185.886.886,0,0,1-.015-.277.885.885,0,0,0-.015-.277.762.762,0,0,1-.077-.293.143.143,0,0,0-.015-.108.955.955,0,0,1-.2-.447.191.191,0,0,0-.045-.169,2.411,2.411,0,0,1-.228-.247.47.47,0,0,0-.077-.092.362.362,0,0,0-.213-.216,1.187,1.187,0,0,1-.244-.092q-.213-.277-.3-.247t-.061-.062a.569.569,0,0,0-.182.031.123.123,0,0,1-.152-.062.7.7,0,0,1-.365.031q-.213-.031-.365-.062Zm13.748.062q-.061.4-.077.508a1.665,1.665,0,0,0-.015.231q-.061.37-.076.416a.348.348,0,0,0-.015.108v.37a.2.2,0,0,0,0,.154.222.222,0,0,1-.03.185q-.122.339-.077.4a.207.207,0,0,1,.045.123,1.906,1.906,0,0,0-.03.555,1.6,1.6,0,0,1,.03.308q-.03.092-.061.169a.46.46,0,0,0-.03.169,1.842,1.842,0,0,0,.03.324,2.207,2.207,0,0,1,.03.385q-.03.277,0,.308a.127.127,0,0,1,.03.092q0,.277.031.293t.03.077a.58.58,0,0,1-.046.231.36.36,0,0,0-.015.231.784.784,0,0,0,.046.277.317.317,0,0,1-.046.277,2.236,2.236,0,0,0,.092.37.1.1,0,0,1-.03.123.8.8,0,0,1,.091.493q-.03.277-.091.585a.7.7,0,0,1,.076.478,1.075,1.075,0,0,0,.015.478.323.323,0,0,0,.046.169.86.86,0,0,1,.076.169.261.261,0,0,0-.045.246.384.384,0,0,1-.015.277,3.662,3.662,0,0,0,0,.678.974.974,0,0,1-.061.493.591.591,0,0,1,.046.169.292.292,0,0,0,.076.169,2.365,2.365,0,0,0-.045.585.885.885,0,0,1-.137.524q.152.339.091.37a1.715,1.715,0,0,0,.092.478q.061.139.122.293a.592.592,0,0,0,.273.216,1.013,1.013,0,0,0,.182.077.557.557,0,0,0,.214-.015h.243a.244.244,0,0,1,.182.123.557.557,0,0,0,.244-.185.287.287,0,0,1,.243-.123.235.235,0,0,1,.213.092.237.237,0,0,0,.214.092.543.543,0,0,0,.136.185.329.329,0,0,1,.107.185,1.3,1.3,0,0,0-.107.2.64.64,0,0,1-.136.2.522.522,0,0,0-.183.077,1.224,1.224,0,0,1-.182.108,1.583,1.583,0,0,0-.775-.108,1.588,1.588,0,0,1-.776-.108l-.669.031q-.335.031-.472.046a.232.232,0,0,1-.2-.046q-.213.062-.258.031a.951.951,0,0,0-.107-.062q-.4.123-.425.031a1.755,1.755,0,0,1-.456.077q-.274.015-.517.015h-.3a.426.426,0,0,1-.243-.062.341.341,0,0,1-.244.031.437.437,0,0,0-.273.031q-.366.092-.4.092a.309.309,0,0,0-.121.062.951.951,0,0,1-.183.062.388.388,0,0,0-.182.092.95.95,0,0,0-.486.108.608.608,0,0,1-.518-.015.52.52,0,0,0-.2-.246q-.136-.092-.045-.339a.979.979,0,0,1,.4-.154h.182a1.248,1.248,0,0,1,.457-.139.243.243,0,0,0,.152-.015,1.175,1.175,0,0,1,.319-.2.842.842,0,0,0,.2-.077,1.17,1.17,0,0,0,.426-.277A.387.387,0,0,1,132.7-3.7a1.218,1.218,0,0,1,.182-.308.751.751,0,0,0,.152-.37,1.131,1.131,0,0,1,.061-.324.188.188,0,0,0,.031-.108,3.244,3.244,0,0,0,.015-.539.736.736,0,0,1,.136-.478.411.411,0,0,1-.076-.246q-.015-.185.076-.246a.951.951,0,0,1-.076-.308.139.139,0,0,0,.015-.062q-.091-.277-.061-.308a.127.127,0,0,0,.03-.092,1.138,1.138,0,0,1,0-.37,2.284,2.284,0,0,0,.03-.37q-.03-.277-.076-.555a3.188,3.188,0,0,1-.046-.524.641.641,0,0,1,0-.277.259.259,0,0,0-.03-.216,1.536,1.536,0,0,1-.015-.709,2.938,2.938,0,0,0,.077-.647.949.949,0,0,0-.061-.324.209.209,0,0,1,.061-.262q-.122-.339-.077-.339t.045-.062a.515.515,0,0,0-.03-.154.591.591,0,0,1-.03-.185,1.352,1.352,0,0,1,.015-.216.222.222,0,0,1,.137-.154,1.166,1.166,0,0,1-.061-.416,3.357,3.357,0,0,0-.031-.478q-.03-.339-.045-.416a.23.23,0,0,1,.045-.169Q133-14.36,133-14.391v-.339a1.244,1.244,0,0,0-.061-.354.256.256,0,0,1-.03-.139.517.517,0,0,0,0-.262.192.192,0,0,1-.03-.108.675.675,0,0,0-.015-.339.484.484,0,0,1-.045-.216h-.274a.369.369,0,0,1-.213-.062.586.586,0,0,1-.457,0q-.273.031-.3-.062a.3.3,0,0,0-.121-.154q-.122-.062-.167-.031a.594.594,0,0,1-.167.062q-.244-.308-.335-.324t-.061-.139a1.1,1.1,0,0,1,.3-.308.571.571,0,0,0,.182.031h.152a.9.9,0,0,0,.365,0,.123.123,0,0,1,.092-.031.662.662,0,0,1,.213-.031h.213a.5.5,0,0,0,.259,0,.185.185,0,0,1,.107-.031q.3.031.319,0a.049.049,0,0,1,.046-.031.914.914,0,0,0,.425-.015.2.2,0,0,1,.122-.046,1.733,1.733,0,0,0,.669-.154q.243.031.258,0t.077-.031a4.058,4.058,0,0,0,.425-.092q.335-.123.4-.062.243-.154.273-.092t.092,0a.361.361,0,0,1,.335-.108,3.029,3.029,0,0,1,.4.046.868.868,0,0,1,.107.6.543.543,0,0,1-.167.231m-1.126-4.5a1.5,1.5,0,0,0-.076.231.536.536,0,0,1-.046.139,1.73,1.73,0,0,1-.228.416.779.779,0,0,0-.137.2.321.321,0,0,0-.228.015.318.318,0,0,1-.167.046,1.364,1.364,0,0,1-.335-.277.706.706,0,0,1-.092-.216q.122-.462.335-.555a.305.305,0,0,1-.015-.154.614.614,0,0,0,.015-.185q.152-.123.167-.185a.137.137,0,0,1,.077-.092.721.721,0,0,1,.106-.385q.077-.077-.015-.139a2.332,2.332,0,0,0,.259-.308.884.884,0,0,0,.137-.4.9.9,0,0,0,.273-.555q.122-.277.167-.277t.077-.062a3.358,3.358,0,0,1,.182-.647.664.664,0,0,1,.213-.031.662.662,0,0,0,.213-.031q.214-.216.182-.231t0-.077a.309.309,0,0,0,.229-.077,1.077,1.077,0,0,1,.167-.139.7.7,0,0,0,.365.031.452.452,0,0,1,.365.092,2.13,2.13,0,0,0,.517,0,.487.487,0,0,1,.3.031.587.587,0,0,1,.091.585,1.4,1.4,0,0,0-.213.247.2.2,0,0,1-.091.092.38.38,0,0,0-.4.231.407.407,0,0,1-.365.262q-.061.092-.106.154a.306.306,0,0,0-.046.185.179.179,0,0,0-.167.077.149.149,0,0,1-.137.077.783.783,0,0,0-.091.185.194.194,0,0,1-.152.123,1.368,1.368,0,0,0-.3.493q-.121,0-.152.077a.2.2,0,0,1-.152.108,2.249,2.249,0,0,0-.151.231.425.425,0,0,1-.183.169.3.3,0,0,1-.061.216.394.394,0,0,0-.091.185ZM150.7-16.116l.152.308a2.364,2.364,0,0,1,.214.416q.03.108.061.2l.107.216a1.435,1.435,0,0,1,.076.185.955.955,0,0,1,0,.339.25.25,0,0,0,.122.277.579.579,0,0,1,.015.216.424.424,0,0,0,.045.216,1.045,1.045,0,0,0,.03.37.089.089,0,0,1,.03.062.785.785,0,0,0,0,.308.9.9,0,0,1,.031.216.727.727,0,0,1-.015.139,1.018,1.018,0,0,0-.016.2.793.793,0,0,0,.031.246.783.783,0,0,0,.091.185.9.9,0,0,0-.045.462.8.8,0,0,1,.045.277,2.844,2.844,0,0,0-.015.478.191.191,0,0,1-.045.169q.03.277,0,.308a.127.127,0,0,0-.03.092,2.554,2.554,0,0,1-.122,1.078q.091.277.045.354a.28.28,0,0,0-.045.139,1.759,1.759,0,0,0,.03.339.3.3,0,0,1-.091.277.839.839,0,0,1,.045.277.218.218,0,0,0-.015.092.838.838,0,0,1-.015.37.627.627,0,0,0-.046.216q0,.123.015.339a1.019,1.019,0,0,1-.045.4,2.027,2.027,0,0,0,.045.447.378.378,0,0,1-.045.324.27.27,0,0,1,.03.277.227.227,0,0,0,.092.277,4.36,4.36,0,0,1-.061.662,1.966,1.966,0,0,0,0,.693.941.941,0,0,0,.121.231,1.105,1.105,0,0,1,.122.2,1.974,1.974,0,0,0,.319.046,1.551,1.551,0,0,0,.38-.015q.092,0,.244-.015a1.152,1.152,0,0,0,.243-.046.694.694,0,0,1,.137-.108.315.315,0,0,1,.167-.046q.243-.308.319-.4t.167-.185q.03-.4.121-.4-.03-.339.182-.431.4-.031.4.092.213.308.335.308a.972.972,0,0,0-.122.154.444.444,0,0,0-.061.246,5.135,5.135,0,0,0-.365.539.832.832,0,0,1-.274.293,1.048,1.048,0,0,1-.152.37q-.091.123-.213.277a4.091,4.091,0,0,0-.563.154,1.59,1.59,0,0,1-.653.062,1.43,1.43,0,0,1-.654-.092q-.319-.123-.594-.216a.334.334,0,0,1-.2-.169.191.191,0,0,0-.2-.108,1.349,1.349,0,0,0-.213-.324,1.1,1.1,0,0,1-.122-.108.315.315,0,0,0-.244-.277,3.371,3.371,0,0,1-.167-.324,1.517,1.517,0,0,0-.2-.323,1.655,1.655,0,0,0-.091-.339,1,1,0,0,1-.061-.37,3.359,3.359,0,0,1-.167-.324q-.076-.169-.136-.324a.688.688,0,0,1-.137.216.769.769,0,0,0-.107.092,3.557,3.557,0,0,1-.213.431,1.333,1.333,0,0,0-.213.277.235.235,0,0,1-.031.092.591.591,0,0,1-.273.277.263.263,0,0,1-.077.216.332.332,0,0,0-.106.185.538.538,0,0,0-.289.231,2.651,2.651,0,0,0-.2.385.184.184,0,0,0-.137.046.291.291,0,0,1-.2.046.652.652,0,0,1-.167.169.255.255,0,0,1-.259.015.476.476,0,0,1-.456.216,2.007,2.007,0,0,0-.624.2.33.33,0,0,1-.35.015.735.735,0,0,1-.365.154.961.961,0,0,0-.365.123q-.274-.123-.3-.077a.229.229,0,0,1-.092.077.437.437,0,0,0-.273-.031.319.319,0,0,1-.274-.092,2.589,2.589,0,0,1-.289-.015q-.136-.015-.288-.046a1.627,1.627,0,0,1-.487-.2.353.353,0,0,0-.335-.046,1.42,1.42,0,0,1-.4-.216,1.017,1.017,0,0,0-.4-.185q-.243-.277-.289-.339a.13.13,0,0,0-.106-.062l-.213-.4q-.274-.216-.259-.247a.051.051,0,0,0-.015-.062l-.335-.493a.659.659,0,0,0-.137-.154,1.786,1.786,0,0,1-.137-.123q-.06-.308-.076-.478a1.145,1.145,0,0,1,.015-.324,3.858,3.858,0,0,0-.061-.493,1.136,1.136,0,0,1-.031-.277q.031-.154.077-.324t.076-.324a1.073,1.073,0,0,0,.015-.308.25.25,0,0,1,.077-.216.373.373,0,0,1,.076-.339.2.2,0,0,0,.046-.246.4.4,0,0,0,.243-.324.4.4,0,0,1,.274-.324.476.476,0,0,1,.167-.324.611.611,0,0,0,.2-.324.5.5,0,0,0,.228-.169.3.3,0,0,1,.259-.108,1.112,1.112,0,0,1,.228-.293.071.071,0,0,0,.045-.077,1.151,1.151,0,0,0,.411-.123.773.773,0,0,1,.137-.092,1.491,1.491,0,0,0,.335-.123.122.122,0,0,1,.091-.031q.4-.092.609-.154t.365-.092q.243.092.273.031a.2.2,0,0,1,.092-.092.694.694,0,0,1,.243-.062,2.434,2.434,0,0,0,.3-.031.838.838,0,0,1,.365-.031.128.128,0,0,0,.122,0,1.1,1.1,0,0,0,.35-.123,1.13,1.13,0,0,1,.319-.123.422.422,0,0,1,.2-.015,1.249,1.249,0,0,0,.167.015q.335-.031.441-.046a1.231,1.231,0,0,1,.167-.015,1.066,1.066,0,0,0,.273-.092,1.08,1.08,0,0,1,.274-.092,1.265,1.265,0,0,0,.319.015.35.35,0,0,1,.076-.046.66.66,0,0,1,.517.092.326.326,0,0,1,.182-.062.327.327,0,0,0,.183-.062,1.822,1.822,0,0,1-.031-.724,1.41,1.41,0,0,0,.061-.416,1.293,1.293,0,0,0-.015-.169,1.3,1.3,0,0,1-.015-.169q-.122-.431-.122-.462a.592.592,0,0,1-.03-.185.721.721,0,0,1,.061-.246.9.9,0,0,1-.061-.416.745.745,0,0,0,.03-.2,1.173,1.173,0,0,1-.077-.385.726.726,0,0,0,.015-.139q-.03-.154-.061-.262a.319.319,0,0,1,.03-.231,1.219,1.219,0,0,1-.091-.246,1.187,1.187,0,0,0-.092-.246q-.152-.431-.243-.478a.263.263,0,0,1-.122-.2.511.511,0,0,1-.213-.139,1.78,1.78,0,0,0-.122-.139,1.059,1.059,0,0,0-.487-.2.175.175,0,0,1-.182-.077l-.44-.123a.187.187,0,0,1-.137-.123,2.2,2.2,0,0,0-.821-.031.5.5,0,0,0-.2.092.513.513,0,0,1-.2.092,1.1,1.1,0,0,1-.319.015.674.674,0,0,0-.319.046.521.521,0,0,0-.213.108.366.366,0,0,1-.244.077q-.122.092-.228.169a.687.687,0,0,1-.289.108,2.474,2.474,0,0,0-.791.277,1.07,1.07,0,0,1-.4.277,2.846,2.846,0,0,0-.228.2,1.072,1.072,0,0,0-.137.169q-.182.37-.274.616a.541.541,0,0,0,.061.493q.091.462.152.678a1.419,1.419,0,0,0,.182.4.163.163,0,0,0,.151.108.125.125,0,0,1,.122.139,2.128,2.128,0,0,1,.35.154.775.775,0,0,0,.381.092.372.372,0,0,0,.213-.062.252.252,0,0,1,.243,0,1.032,1.032,0,0,1,.244-.185.087.087,0,0,0,.061-.031q.06-.062.137-.154a.292.292,0,0,0,.076-.185q0-.308-.456-.4a1.733,1.733,0,0,0-.092.308.953.953,0,0,0,0,.339.746.746,0,0,1-.4.015,2.575,2.575,0,0,1-.335-.108.709.709,0,0,1-.046-.354,1.313,1.313,0,0,1,.077-.385q.182-.154.2-.216a.613.613,0,0,1,.045-.123q.214-.092.381-.154a.831.831,0,0,1,.228-.062.363.363,0,0,1,.243.077.226.226,0,0,0,.244.015q.122.123.213.231a1.364,1.364,0,0,0,.213.2q.061.308.137.662a.711.711,0,0,1-.107.6.29.29,0,0,1-.166.123.272.272,0,0,0-.167.154.23.23,0,0,0-.214.031.382.382,0,0,1-.182.092.283.283,0,0,1-.167.077.287.287,0,0,0-.167.077,2.263,2.263,0,0,1-.912,0,1.446,1.446,0,0,1-.547-.231,1.506,1.506,0,0,0-.487-.231.208.208,0,0,0-.092-.185.556.556,0,0,1-.152-.154,2.838,2.838,0,0,0-.152-.524,2.024,2.024,0,0,0-.121-.216,1.263,1.263,0,0,0-.061-.4.431.431,0,0,1-.06-.37.78.78,0,0,1,.06-.339,1.2,1.2,0,0,1,.152-.616q.061-.277.122-.308t0-.092a3.129,3.129,0,0,0,.365-.37,2.63,2.63,0,0,1,.335-.339q.426-.123.457-.246a.427.427,0,0,0,.258-.077.431.431,0,0,1,.259-.077.285.285,0,0,1,.258-.139.274.274,0,0,0,.259-.2q.091.154.289.031a.317.317,0,0,1,.35-.031.258.258,0,0,0,.167-.108.44.44,0,0,1,.136-.139,1.157,1.157,0,0,0,.366-.092,1.375,1.375,0,0,1,.35-.077.118.118,0,0,0,.076.015q.4-.062.532-.077t.2-.015a.5.5,0,0,0,.319-.031q.107-.062.259.092a1.507,1.507,0,0,0,.35.015.206.206,0,0,1,.137.015,2.5,2.5,0,0,1,.836.246.978.978,0,0,0,.5.154,2.013,2.013,0,0,0,.882.277q.273.185.273.231a.169.169,0,0,0,.061.108,2.8,2.8,0,0,0,.288.216q.016,0,.046.031a2.163,2.163,0,0,1,.365.262.747.747,0,0,0,.091.108q.214.339.274.354t.061.108m-3.771,5.392a1.051,1.051,0,0,0-.425.139.322.322,0,0,1-.214.077.52.52,0,0,0-.213-.015.938.938,0,0,1-.152.015q-.182.246-.3.246a1.392,1.392,0,0,0-.273.031,1.246,1.246,0,0,1-.35.123.3.3,0,0,0-.137.031q-.122.062-.228.108a.635.635,0,0,0-.2.139q-.213.308-.288.4a.613.613,0,0,1-.2.154.58.58,0,0,1-.046.231q-.045.108-.076.2a.435.435,0,0,0-.152.293.486.486,0,0,1-.03.2.474.474,0,0,0-.122.216.127.127,0,0,1-.03.092,1.221,1.221,0,0,0-.167.231.348.348,0,0,0-.015.108q-.244.37-.2.4t.045.154a.527.527,0,0,0-.061.231v.2a1.04,1.04,0,0,1-.061.339.181.181,0,0,0-.03.123.214.214,0,0,1,.045.185.887.887,0,0,0,.015.277,1.525,1.525,0,0,0,.077.185.153.153,0,0,1-.045.185q.182.4.213.462a1.078,1.078,0,0,1,.213.4.349.349,0,0,0,.03.154,1.616,1.616,0,0,0,.2.169.5.5,0,0,1,.167.231q.274.123.274.185a.278.278,0,0,0,.03.123.805.805,0,0,1,.3.062.884.884,0,0,0,.335.062,1.054,1.054,0,0,1,.4.046.229.229,0,0,0,.214-.015.908.908,0,0,1,.4-.046,1.332,1.332,0,0,0,.456-.046,1.239,1.239,0,0,1,.4-.154.337.337,0,0,0,.152-.031q.243-.123.258-.185t.137-.031a1.231,1.231,0,0,0,.274-.37.471.471,0,0,0,.3-.354.4.4,0,0,1,.3-.324.6.6,0,0,1,.182-.339,1.169,1.169,0,0,0,.046-.185.229.229,0,0,1,.106-.154q.092-.308.122-.447a.679.679,0,0,1,.122-.262.224.224,0,0,1,.167-.062.226.226,0,0,0,.167-.062A1.41,1.41,0,0,0,149-7.012a1.543,1.543,0,0,1-.061-.447,2.29,2.29,0,0,1,.015-.277.885.885,0,0,0-.015-.277.958.958,0,0,1-.092-.293v-.139a1.227,1.227,0,0,1-.061-.493,1.6,1.6,0,0,0,.03-.308,2.688,2.688,0,0,1-.121-.678q.03-.216-.016-.246a.1.1,0,0,1-.045-.092.983.983,0,0,1,.03-.262.313.313,0,0,0-.03-.231,2.27,2.27,0,0,0-.79.015A2.969,2.969,0,0,1,146.93-10.724Z" transform="translate(149.802 142.802)" fill="#558742" fill-rule="evenodd"/>
    </g>
  </g>
</svg>
